<?xml version="1.0" encoding="iso-8859-1"?>
<!-- Generator: Adobe Illustrator 19.0.0, SVG Export Plug-In . SVG Version: 6.00 Build 0)  -->
<svg version="1.1" id="Layer_1" xmlns="http://www.w3.org/2000/svg" xmlns:xlink="http://www.w3.org/1999/xlink" x="0px" y="0px"
	 viewBox="0 0 512 512" style="enable-background:new 0 0 512 512;" xml:space="preserve">
<path style="fill:#AFD5FF;" d="M247.304,194.88h83.883c45.772,0,60.046,15.111,114.217,60.757
	c7.905,6.658,14.848,13.952,21.872,20.292c38.272,34.544,43.898,35.815,44.631,68.429c0.166,7.381,0.068,23.653,0.023,34.123
	c-0.026,5.949-0.068,12.772-0.068,21.635c0,11.537-10.771,21.063-24.3,21.874l-141.265,0.056h-81.01l-90.336-0.049
	c-10.132-0.56-18.728-6.007-22.455-13.534c-1.279-2.574-1.982-5.396-1.982-8.348V228.208c0-18.454,14.97-33.41,33.425-33.391
	L247.304,194.88z"/>
<path style="fill:#95B8C2;" d="M150.516,256v-27.793c0-18.454,14.97-33.41,33.425-33.391l63.363,0.063h83.883
	c45.772,0,60.046,15.111,114.217,60.757c0.142,0.12,0.279,0.244,0.421,0.364H150.516z"/>
<path style="fill:#5B7F99;" d="M150.516,279.374v-51.167c0-18.454,14.97-33.41,33.425-33.391l36.179,0.037v84.521H150.516z"/>
<path style="fill:#DC2C13;" d="M511.908,344.357c0.166,7.381,0.068,23.653,0.023,34.123c-0.026,5.949-0.068,12.772-0.068,21.635
	c0,11.537-10.771,21.063-24.3,21.874l-141.265,0.056h-81.01l-90.336-0.049c-10.132-0.56-18.728-6.007-22.455-13.534
	c-1.279-2.574-1.982-5.396-1.982-8.348V228.208c0-18.454,14.97-33.41,33.425-33.391l15.175,0.016
	c23.018,31.216,100.815,126.285,113.186,126.285h153.877h39.703h3.08C510.968,327.134,511.679,334.23,511.908,344.357z"/>
<g>
	<path style="fill:#B21100;" d="M150.516,299.269v-71.061c0-18.454,14.97-33.41,33.425-33.391l15.175,0.016
		c4.826,6.546,12.067,15.904,20.602,26.6v77.837H150.516z"/>
	<path style="fill:#B21100;" d="M511.886,388.452c-0.013,3.493-0.023,7.331-0.023,11.662c0,11.537-10.771,21.063-24.3,21.874
		l-141.265,0.056h-81.01l-90.336-0.049c-10.132-0.56-18.728-6.007-22.455-13.534c-1.279-2.574-1.982-5.396-1.982-8.348v-11.661
		H511.886z"/>
</g>
<path style="fill:#651100;" d="M235.317,321.114c0,5.533-4.484,10.017-10.017,10.017h-13.666c-5.533,0-10.017-4.484-10.017-10.017
	c0-5.533,4.484-10.017,10.017-10.017H225.3C230.833,311.097,235.317,315.581,235.317,321.114z"/>
<path style="fill:#234556;" d="M265.288,422.046c0,25.089-20.222,45.432-45.17,45.432s-45.17-20.343-45.17-45.432
	c0-25.094,20.222-45.432,45.17-45.432S265.288,396.953,265.288,422.046z M442.394,376.614c-24.941,0-45.164,20.338-45.164,45.432
	c0,25.089,20.222,45.432,45.164,45.432c24.947,0,45.174-20.343,45.174-45.432C487.569,396.953,467.34,376.614,442.394,376.614z"/>
<g>
	<path style="fill:#95B8C2;" d="M230.152,422.046c0,5.533-4.484,10.017-10.017,10.017s-10.033-4.484-10.033-10.017
		c0-5.533,4.469-10.017,10.002-10.017h0.031C225.667,412.029,230.152,416.513,230.152,422.046z M442.415,412.029h-0.031
		c-5.532,0-10.002,4.484-10.002,10.017c0,5.533,4.5,10.017,10.032,10.017c5.533,0,10.017-4.484,10.017-10.017
		C452.431,416.513,447.948,412.029,442.415,412.029z"/>
	<path style="fill:#95B8C2;" d="M93.684,359.876H31.811c-5.533,0-10.017-4.484-10.017-10.017c0-5.533,4.484-10.017,10.017-10.017
		h61.873c5.533,0,10.017,4.484,10.017,10.017C103.701,355.392,99.217,359.876,93.684,359.876z M93.684,383.738H66.011
		c-5.533,0-10.017,4.484-10.017,10.017c0,5.533,4.484,10.017,10.017,10.017h27.672c5.533,0,10.017-4.484,10.017-10.017
		C103.701,388.222,99.217,383.738,93.684,383.738z"/>
</g>
<path style="fill:#A0A0A0;" d="M141.699,215.405H0V44.522h141.699V215.405L141.699,215.405z"/>
<path style="fill:#BFBFBF;" d="M192.792,266.798H51.093V95.915h141.699V266.798L192.792,266.798z"/>
<path style="fill:#5B5B5B;" d="M156.762,144.906c0,5.533-4.484,10.017-10.017,10.017H97.138c-5.533,0-10.017-4.484-10.017-10.017
	c0-5.533,4.484-10.017,10.017-10.017h49.607C152.278,134.889,156.762,139.374,156.762,144.906z M123.238,175.469H97.138
	c-5.533,0-10.017,4.484-10.017,10.017s4.484,10.017,10.017,10.017h26.101c5.533,0,10.017-4.484,10.017-10.017
	S128.77,175.469,123.238,175.469z"/>
<g>
</g>
<g>
</g>
<g>
</g>
<g>
</g>
<g>
</g>
<g>
</g>
<g>
</g>
<g>
</g>
<g>
</g>
<g>
</g>
<g>
</g>
<g>
</g>
<g>
</g>
<g>
</g>
<g>
</g>
</svg>
