<?xml version="1.0" encoding="utf-8"?>
<!-- Generator: Adobe Illustrator 16.0.0, SVG Export Plug-In . SVG Version: 6.00 Build 0)  -->
<!DOCTYPE svg PUBLIC "-//W3C//DTD SVG 1.1//EN" "http://www.w3.org/Graphics/SVG/1.1/DTD/svg11.dtd">
<svg version="1.1" xmlns="http://www.w3.org/2000/svg" xmlns:xlink="http://www.w3.org/1999/xlink" x="0px" y="0px"
	 width="335.539px" height="300.979px" viewBox="0 0 335.539 300.979" enable-background="new 0 0 335.539 300.979"
	 xml:space="preserve">
<g id="Layer_1" display="none">
	<g display="inline">
		<g>
			<path fill="#FBFBFB" d="M59.644,23.648c0.249,2.559,0.024,5.093,0.024,7.627c0,2.476,0.074,4.951,0.224,7.434
				c0.1,1.82,0.224,3.631,0.383,5.467l-6.074,0.449c-1.364-15.42,0.412-19.421-1.653-25.082
				C55.108,20.708,57.458,22.104,59.644,23.648z"/>
			<path fill="#FBFBFB" d="M11.568,5.057c5.441-2.293,11.772-3.24,18.093-3.007c11.213,0.462,23.083,4.789,27.98,14.754
				c-3.016-1.586-6.28-2.908-9.811-3.846c-4.921-4.225-11.798-5.99-18.202-6.239c-4.942-0.199-9.903,0.531-14.157,2.177
				C-0.197,14.952-4.703,32.077-5.42,49.029l-6.081,0.448C-10.537,21.464-0.107,9.971,11.568,5.057z"/>
			<path fill="#37519F" d="M-93.62,55.558c0.037,0.006,30.259,5.3,30.297,5.3l-1.072,203.162l0,0l-39.227,24.831L-93.62,55.558
				L-93.62,55.558z"/>
			<path fill="#37519F" d="M-44.12,67.932l7.927,239.835l194.641-35.837l-9.402-219.588C149.045,52.342-44.082,67.929-44.12,67.932z
				"/>
			<polygon fill="#284093" points="-64.378,264.02 -36.19,307.769 -36.199,307.769 -103.622,288.851 -64.395,264.02 			"/>
			<polygon fill="#263688" points="-44.115,67.937 -36.19,307.769 -64.378,264.02 -64.395,264.02 -63.323,60.858 			"/>
			<path fill="#263688" d="M-44.115,67.937l-19.208-7.078c-0.038,0-30.26-5.294-30.297-5.3l197.616-14.629l0.008,0.009l12.611,5.665
				l32.417,5.741L-44.115,67.937z"/>
			<path fill="#263688" d="M79.97,57.544l-6.916,0.565c1.655,1.896,3.605,4.681,5.347,7.927c1.704,3.172,4.318,5.002,8.083,9.64
				c-0.208,0.41-0.829,0.72-1.02,1.185c-0.786,1.733,1.14,3.411,3.48,2.734c2.129-0.572,3.494-2.23,3.436-5.095v-0.026
				c-0.018-0.055-0.009-0.109-0.009-0.173c-6.755-8.684-6.85-7.882-11.462-15.472c0,0,0,0-0.028,0
				C80.581,58.401,80.28,57.964,79.97,57.544z"/>
			<path fill="#263688" d="M13.693,84.029c-1.264-2.695-2.666-5.335-4.191-7.95c-2.5-4.19-4.88-7.905-7.791-11.846l6.706-0.538
				c1.258,1.795,2.489,3.59,3.653,5.449c1.659,2.561,3.199,5.166,4.639,7.818c1.075,1.94,2.077,3.917,2.97,5.904
				c0.051,0.111,0.098,0.224,0.148,0.335C17.736,83.301,15.688,83.585,13.693,84.029z"/>
			<path fill="#FBFBFB" d="M73.775,29.846c6.895,7.961,13.042,17.546,16.963,27.681l0,0c0.199,0.582,0.391,1.171,0.574,1.745
				c0.024,0.017,0.024,0.017,0.024,0.017c0.315,1.859,3.396,10.299,1.994,16.822c-0.062,0.146-0.049,0.192-0.049,0.192
				c-0.125,0.423-0.257,0.848-0.457,1.238c0.017,0,0.017-0.009,0.017-0.025c-1.206,2.711-4.549,3.184-6.198,2.093
				c-1.229-0.78-1.52-2.151-0.672-3.107c0.324-0.391,1.005-0.498,1.329-0.831c1.2-2.85-0.478-12.279-2.658-17.953
				c-0.135-0.928-3.744-9.227-9.562-17.496c-6.075-8.712-12.864-16.285-22.53-20.678c-1.503-0.681-3.09-1.279-4.743-1.778
				c-11.137-3.462-31.525-2.884-34.717,8.208c-1.405,4.852,1.553,9.819,3.09,14.555c0.73,2.243,1.413,4.486,2.019,6.763
				c0.822,2.941,1.521,5.882,2.102,8.839c0.449,2.176,0.823,4.361,1.08,6.521c0.324,2.609,0.532,5.226,0.573,7.851l0,0
				c0,0.307,0.024,0.614,0.024,0.922c0.01,1.545,0.076,3.116,0.101,4.669c0,1.554-0.049,3.099-0.324,4.645
				c-0.125,0.547-0.257,1.112-0.449,1.661c0,0.017,0,0.034-0.024,0.05l0,0c-0.282,0.838-0.723,1.645-1.313,2.327v0.017
				c-0.855,0.988-2.059,1.728-3.763,1.943c-0.223,0.042-0.424,0.049-0.639,0.042c-1.612-0.075-3.042-1.164-3-2.484
				c0.033-0.731,0.498-1.396,1.295-1.794c0.715-0.332,1.114-0.216,1.446-0.881c0.763-1.462,0.763-3.207,0.806-4.785
				c0.025-1.877-0.083-3.771-0.083-5.632c-0.025-2.708-0.216-5.383-0.548-8.075c-0.646-5.2-1.782-10.313-3.181-15.403
				c-0.839-3.074-1.788-6.131-2.867-9.155c-0.823-2.384-1.937-4.71-2.41-7.119c-0.522-2.792-0.339-5.625,0.798-8.233
				C13.9,9.346,50.235,2.702,73.775,29.846z"/>
		</g>
	</g>
</g>
<g id="Layer_2" display="none">
	<g display="inline">
		<g>
			<path fill="#FBFBFB" d="M236.136,14.636c0.256,2.631,0.025,5.236,0.025,7.842c0,2.545,0.076,5.091,0.23,7.644
				c0.103,1.871,0.23,3.733,0.394,5.621l-6.245,0.461c-1.402-15.855,0.424-19.968-1.699-25.789
				C231.472,11.612,233.888,13.047,236.136,14.636z"/>
			<path fill="#FBFBFB" d="M186.705-4.48c5.595-2.358,12.104-3.332,18.604-3.092c11.529,0.476,23.733,4.924,28.77,15.17
				c-3.102-1.631-6.457-2.989-10.088-3.955c-5.06-4.344-12.131-6.159-18.715-6.415c-5.082-0.205-10.183,0.546-14.557,2.238
				c-16.11,6.228-20.743,23.836-21.481,41.266l-6.252,0.46C163.976,12.39,174.7,0.572,186.705-4.48z"/>
			<path fill="#E83C6A" d="M78.55,47.445c0.038,0.006,31.112,5.45,31.151,5.45l-1.103,208.892l0,0l-40.333,25.531L78.55,47.445
				L78.55,47.445z"/>
			<path fill="#E83C6A" d="M129.446,60.168l8.15,246.599l200.131-36.848l-9.668-225.781
				C328.059,44.138,129.485,60.165,129.446,60.168z"/>
			<polygon fill="#C11636" points="108.617,261.787 137.599,306.769 137.59,306.769 68.266,287.318 108.599,261.787 			"/>
			<polygon fill="#6B1224" points="129.451,60.173 137.599,306.769 108.617,261.787 108.599,261.787 109.702,52.895 			"/>
			<path fill="#6B1224" d="M129.451,60.173l-19.749-7.278c-0.039,0-31.113-5.443-31.151-5.45L281.74,32.403l0.008,0.009
				l12.967,5.825l33.331,5.902L129.451,60.173z"/>
			<path fill="#6B1224" d="M257.036,49.488l-7.11,0.581c1.701,1.95,3.707,4.813,5.498,8.151c1.752,3.261,4.439,5.144,8.311,9.912
				c-0.215,0.422-0.853,0.74-1.049,1.218c-0.809,1.782,1.172,3.507,3.578,2.811c2.189-0.588,3.592-2.293,3.532-5.238v-0.027
				c-0.019-0.056-0.009-0.112-0.009-0.178c-6.946-8.929-7.043-8.104-11.786-15.908c0,0,0,0-0.028,0
				C257.664,50.369,257.354,49.919,257.036,49.488z"/>
			<path fill="#6B1224" d="M188.889,76.719c-1.3-2.771-2.741-5.485-4.31-8.174c-2.57-4.309-5.018-8.128-8.011-12.18l6.896-0.553
				c1.293,1.846,2.559,3.691,3.756,5.603c1.706,2.632,3.289,5.312,4.77,8.039c1.105,1.995,2.136,4.027,3.054,6.07
				c0.053,0.115,0.101,0.23,0.152,0.345C193.046,75.971,190.94,76.263,188.889,76.719z"/>
			<path fill="#FBFBFB" d="M250.666,21.008c7.09,8.186,13.41,18.041,17.441,28.462l0,0c0.205,0.598,0.402,1.204,0.59,1.793
				c0.025,0.017,0.025,0.017,0.025,0.017c0.324,1.912,3.492,10.59,2.05,17.297c-0.063,0.15-0.051,0.197-0.051,0.197
				c-0.128,0.435-0.265,0.872-0.47,1.272c0.018,0,0.018-0.009,0.018-0.025c-1.24,2.788-4.678,3.273-6.373,2.152
				c-1.264-0.802-1.563-2.212-0.691-3.194c0.333-0.402,1.033-0.512,1.366-0.854c1.233-2.93-0.491-12.626-2.733-18.459
				c-0.139-0.955-3.85-9.487-9.831-17.989c-6.246-8.958-13.227-16.744-23.165-21.261c-1.546-0.7-3.178-1.315-4.877-1.828
				c-11.451-3.56-32.414-2.965-35.696,8.44c-1.444,4.988,1.597,10.096,3.178,14.965c0.751,2.306,1.452,4.613,2.075,6.953
				c0.846,3.024,1.563,6.048,2.161,9.089c0.462,2.238,0.846,4.484,1.11,6.705c0.333,2.683,0.547,5.373,0.589,8.072l0,0
				c0,0.316,0.025,0.631,0.025,0.948c0.01,1.589,0.078,3.204,0.104,4.801c0,1.598-0.051,3.187-0.333,4.775
				c-0.129,0.563-0.265,1.144-0.462,1.708c0,0.018,0,0.035-0.025,0.052l0,0c-0.29,0.862-0.743,1.691-1.35,2.392v0.017
				c-0.88,1.016-2.117,1.776-3.869,1.999c-0.229,0.043-0.436,0.051-0.657,0.043c-1.657-0.077-3.127-1.197-3.084-2.554
				c0.034-0.752,0.512-1.435,1.332-1.845c0.735-0.341,1.146-0.222,1.486-0.906c0.785-1.503,0.785-3.297,0.829-4.92
				c0.026-1.931-0.086-3.878-0.086-5.792c-0.025-2.785-0.222-5.535-0.563-8.302c-0.664-5.346-1.832-10.604-3.271-15.837
				c-0.863-3.16-1.838-6.304-2.948-9.413c-0.846-2.452-1.991-4.843-2.478-7.32c-0.537-2.87-0.349-5.783,0.82-8.465
				C189.102-0.07,226.462-6.902,250.666,21.008z"/>
		</g>
	</g>
</g>
<g id="ISM_LOGO" display="none">
	<g display="inline">
		<g>
			<g>
				<g>
					<path fill-rule="evenodd" clip-rule="evenodd" fill="#FFFFFF" d="M259.341,252.352c-1.175,0-2.093,0.46-2.756,1.381
						c-0.662,0.92-1,2.222-1.015,3.904v0.902c0,1.719,0.335,3.047,1.005,3.985c0.669,0.938,1.599,1.407,2.787,1.407
						c1.203,0,2.129-0.458,2.777-1.375c0.647-0.917,0.972-2.256,0.972-4.018v-0.816c0-1.733-0.327-3.062-0.983-3.985
						C261.474,252.814,260.544,252.352,259.341,252.352z"/>
					<path fill-rule="evenodd" clip-rule="evenodd" fill="#FFFFFF" d="M232.013,252.352c-1.175,0-2.093,0.46-2.756,1.381
						c-0.662,0.92-1,2.222-1.015,3.904v0.902c0,1.719,0.335,3.047,1.005,3.985c0.669,0.938,1.599,1.407,2.787,1.407
						c1.203,0,2.129-0.458,2.777-1.375c0.647-0.917,0.972-2.256,0.972-4.018v-0.816c0-1.733-0.327-3.062-0.983-3.985
						C234.146,252.814,233.216,252.352,232.013,252.352z"/>
					<path fill-rule="evenodd" clip-rule="evenodd" fill="#FFFFFF" d="M180,252.352c-1.175,0-2.093,0.46-2.756,1.381
						c-0.662,0.92-1,2.222-1.015,3.904v0.902c0,1.719,0.335,3.047,1.005,3.985c0.669,0.938,1.599,1.407,2.787,1.407
						c1.203,0,2.129-0.458,2.777-1.375c0.647-0.917,0.972-2.256,0.972-4.018v-0.816c0-1.733-0.327-3.062-0.983-3.985
						C182.132,252.814,181.203,252.352,180,252.352z"/>
					<path fill-rule="evenodd" clip-rule="evenodd" fill="#FFFFFF" d="M276.255,253.211c-0.477-0.458-1.188-0.694-2.133-0.709
						h-2.868v5.242h2.793c0.917,0,1.633-0.23,2.148-0.693c0.516-0.461,0.773-1.094,0.773-1.896
						C276.969,254.318,276.731,253.669,276.255,253.211z"/>
					<path fill-rule="evenodd" clip-rule="evenodd" fill="#FFFFFF" d="M36.372,253.211c-0.477-0.458-1.187-0.694-2.132-0.709h-2.868
						v5.242h2.793c0.917,0,1.633-0.23,2.148-0.693c0.516-0.461,0.773-1.094,0.773-1.896
						C37.086,254.318,36.848,253.669,36.372,253.211z"/>
					<path fill-rule="evenodd" clip-rule="evenodd" fill="#FFFFFF" d="M132.24,252.352c-1.175,0-2.093,0.46-2.756,1.381
						c-0.662,0.92-1,2.222-1.015,3.904v0.902c0,1.719,0.335,3.047,1.005,3.985c0.669,0.938,1.599,1.407,2.787,1.407
						c1.203,0,2.129-0.458,2.777-1.375c0.647-0.917,0.972-2.256,0.972-4.018v-0.816c0-1.733-0.327-3.062-0.983-3.985
						C134.373,252.814,133.443,252.352,132.24,252.352z"/>
					<path fill-rule="evenodd" clip-rule="evenodd" fill="#FFFFFF" d="M147.429,252.352c-1.175,0-2.093,0.46-2.756,1.381
						c-0.662,0.92-1,2.222-1.015,3.904v0.902c0,1.719,0.335,3.047,1.005,3.985c0.669,0.938,1.599,1.407,2.787,1.407
						c1.203,0,2.129-0.458,2.777-1.375c0.647-0.917,0.972-2.256,0.972-4.018v-0.816c0-1.733-0.327-3.062-0.983-3.985
						C149.562,252.814,148.632,252.352,147.429,252.352z"/>
					<path fill-rule="evenodd" clip-rule="evenodd" fill="#FFFFFF" d="M336.995,255.751c-0.466-4.037-2.783-7.225-4.789-10.539
						c-11.335-18.723-22.705-37.418-34.047-56.133c-22.728-37.513-45.446-75.029-68.166-112.546
						c-13.957-23.048-27.924-46.091-41.84-69.165c-3.242-5.376-7.201-9.825-13.228-12.202c-5.399-2.128-9.526-1.173-12.511-0.348
						c-6.031,1.663-10.283,5.631-13.449,10.798c-7.952,12.983-15.769,26.051-23.694,39.051
						c-9.204,15.099-38.578,63.686-42.495,70.161c-23.045,38.102-46.097,76.2-69.176,114.28
						C8.208,238.007,2.659,246.814-2.14,256.06c-2.031,5.445-0.055,10.559,0.49,11.988c3.085,8.1,9.025,10.432,16.727,12.756
						c0.458,0.141,5.635,0.168,6.673,0.168c97.416-0.031,194.832-0.033,292.248-0.014c0.925,0,7.344-0.611,8.778-0.74
						c0.185-0.125,2.325-0.695,3.382-1.266c6.522-2.918,8.445-5.986,10.734-12.336C337.506,263.277,337.056,256.289,336.995,255.751
						z M25.313,265.952h-2.707v-15.641h2.707V265.952z M40.448,265.952h-2.911l-3.137-6.016h-3.029v6.016h-2.718v-15.641h5.5
						c1.805,0,3.197,0.405,4.179,1.215c0.981,0.811,1.472,1.982,1.472,3.516c0,1.047-0.252,1.923-0.757,2.629
						s-1.208,1.249-2.111,1.629l3.513,6.513V265.952z M45.25,265.952h-2.707v-15.641h2.707V265.952z M57.985,265.012
						c-0.999,0.77-2.354,1.154-4.066,1.154c-1.132,0-2.172-0.209-3.121-0.629c-0.949-0.418-1.687-0.997-2.213-1.734
						s-0.79-1.597-0.79-2.578h2.718c0,0.888,0.293,1.575,0.881,2.063c0.587,0.487,1.429,0.73,2.524,0.73
						c0.945,0,1.656-0.191,2.132-0.574c0.476-0.384,0.714-0.891,0.714-1.521c0-0.688-0.242-1.218-0.725-1.59
						s-1.355-0.748-2.616-1.128c-1.261-0.38-2.263-0.802-3.008-1.268c-1.425-0.896-2.138-2.063-2.138-3.502
						c0-1.261,0.514-2.299,1.542-3.115c1.027-0.816,2.361-1.225,4.001-1.225c1.088,0,2.059,0.2,2.911,0.602
						c0.852,0.401,1.521,0.973,2.009,1.713c0.487,0.742,0.73,1.563,0.73,2.466h-2.707c0-0.81-0.256-1.443-0.768-1.901
						c-0.512-0.458-1.245-0.688-2.197-0.688c-0.888,0-1.578,0.189-2.068,0.567c-0.491,0.378-0.736,0.905-0.736,1.583
						c0,0.57,0.265,1.047,0.795,1.428c0.53,0.382,1.403,0.753,2.621,1.113c1.217,0.36,2.195,0.771,2.933,1.232
						c0.737,0.463,1.278,0.992,1.622,1.59c0.344,0.599,0.516,1.299,0.516,2.101C59.483,263.206,58.984,264.242,57.985,265.012z
						 M74.286,265.952h-2.707v-6.939h-6.993v6.939h-2.718v-15.641h2.718v6.51h6.993v-6.51h2.707V265.952z M92.371,265.012
						c-0.999,0.77-2.354,1.154-4.066,1.154c-1.132,0-2.172-0.209-3.121-0.629c-0.949-0.418-1.687-0.997-2.213-1.734
						s-0.79-1.597-0.79-2.578h2.718c0,0.888,0.293,1.575,0.881,2.063c0.587,0.487,1.429,0.73,2.524,0.73
						c0.945,0,1.656-0.191,2.132-0.574c0.476-0.384,0.714-0.891,0.714-1.521c0-0.688-0.242-1.218-0.725-1.59
						s-1.355-0.748-2.616-1.128c-1.261-0.38-2.263-0.802-3.008-1.268c-1.425-0.896-2.138-2.063-2.138-3.502
						c0-1.261,0.514-2.299,1.542-3.115c1.027-0.816,2.361-1.225,4.001-1.225c1.088,0,2.059,0.2,2.911,0.602
						c0.852,0.401,1.521,0.973,2.009,1.713c0.487,0.742,0.73,1.563,0.73,2.466h-2.707c0-0.81-0.256-1.443-0.768-1.901
						c-0.512-0.458-1.245-0.688-2.197-0.688c-0.888,0-1.578,0.189-2.068,0.567c-0.491,0.378-0.736,0.905-0.736,1.583
						c0,0.57,0.265,1.047,0.795,1.428c0.53,0.382,1.403,0.753,2.621,1.113c1.217,0.36,2.195,0.771,2.933,1.232
						c0.737,0.463,1.278,0.992,1.622,1.59c0.344,0.599,0.516,1.299,0.516,2.101C93.869,263.206,93.37,264.242,92.371,265.012z
						 M99.396,262.642c0.605,0.889,1.491,1.333,2.659,1.333c1.067,0,1.869-0.24,2.406-0.72s0.877-1.278,1.021-2.396h2.707
						c-0.158,1.669-0.773,2.971-1.848,3.904c-1.074,0.936-2.504,1.402-4.287,1.402c-1.246,0-2.344-0.295-3.292-0.887
						c-0.949-0.59-1.681-1.43-2.197-2.519s-0.784-2.353-0.806-3.792v-1.461c0-1.476,0.261-2.775,0.784-3.899
						c0.522-1.124,1.273-1.991,2.25-2.6s2.107-0.913,3.389-0.913c1.726,0,3.115,0.467,4.167,1.402
						c1.053,0.934,1.666,2.257,1.838,3.969h-2.707c-0.129-1.124-0.457-1.936-0.984-2.434c-0.525-0.497-1.297-0.746-2.314-0.746
						c-1.182,0-2.089,0.432-2.723,1.296c-0.634,0.863-0.958,2.131-0.972,3.801v1.387C98.488,260.462,98.791,261.753,99.396,262.642z
						 M123.035,265.952h-2.707v-6.939h-6.993v6.939h-2.718v-15.641h2.718v6.51h6.993v-6.51h2.707V265.952z M138.728,258.54
						c0,1.532-0.265,2.877-0.795,4.033c-0.53,1.157-1.287,2.045-2.271,2.664c-0.985,0.62-2.118,0.93-3.4,0.93
						c-1.268,0-2.397-0.31-3.389-0.93c-0.992-0.619-1.759-1.502-2.299-2.647c-0.541-1.146-0.815-2.467-0.822-3.964v-0.881
						c0-1.525,0.271-2.872,0.811-4.039c0.541-1.167,1.304-2.061,2.289-2.68c0.984-0.62,2.114-0.93,3.389-0.93
						s2.404,0.307,3.389,0.918c0.985,0.613,1.746,1.494,2.283,2.643c0.537,1.15,0.81,2.487,0.816,4.013V258.54z M153.917,258.54
						c0,1.532-0.265,2.877-0.795,4.033c-0.53,1.157-1.287,2.045-2.271,2.664c-0.985,0.62-2.118,0.93-3.4,0.93
						c-1.268,0-2.397-0.31-3.389-0.93c-0.992-0.619-1.759-1.502-2.299-2.647c-0.541-1.146-0.815-2.467-0.822-3.964v-0.881
						c0-1.525,0.271-2.872,0.811-4.039c0.541-1.167,1.304-2.061,2.289-2.68c0.984-0.62,2.114-0.93,3.389-0.93
						s2.404,0.307,3.389,0.918c0.985,0.613,1.746,1.494,2.283,2.643c0.537,1.15,0.81,2.487,0.816,4.013V258.54z M166.443,265.952
						h-9.818v-15.641h2.718v13.449h7.101V265.952z M186.488,258.54c0,1.532-0.265,2.877-0.795,4.033
						c-0.53,1.157-1.287,2.045-2.271,2.664c-0.985,0.62-2.118,0.93-3.4,0.93c-1.268,0-2.397-0.31-3.389-0.93
						c-0.992-0.619-1.759-1.502-2.299-2.647c-0.541-1.146-0.815-2.467-0.822-3.964v-0.881c0-1.525,0.271-2.872,0.811-4.039
						c0.541-1.167,1.304-2.061,2.289-2.68c0.984-0.62,2.114-0.93,3.389-0.93s2.404,0.307,3.389,0.918
						c0.985,0.613,1.746,1.494,2.283,2.643c0.537,1.15,0.81,2.487,0.816,4.013V258.54z M199.131,252.502h-7.219v4.651h6.295v2.191
						h-6.295v6.606h-2.718v-15.641h9.937V252.502z M222.808,265.952h-2.707v-5.156l0.269-6.896l-4.619,12.053h-1.944l-4.608-12.042
						l0.269,6.886v5.156h-2.707v-15.641h3.523l4.512,11.988l4.501-11.988h3.513V265.952z M238.501,258.54
						c0,1.532-0.265,2.877-0.795,4.033c-0.53,1.157-1.287,2.045-2.271,2.664c-0.985,0.62-2.118,0.93-3.4,0.93
						c-1.268,0-2.397-0.31-3.389-0.93c-0.992-0.619-1.759-1.502-2.299-2.647c-0.541-1.146-0.815-2.467-0.822-3.964v-0.881
						c0-1.525,0.271-2.872,0.811-4.039c0.541-1.167,1.304-2.061,2.289-2.68c0.984-0.62,2.114-0.93,3.389-0.93
						s2.404,0.307,3.389,0.918c0.985,0.613,1.746,1.494,2.283,2.643c0.537,1.15,0.81,2.487,0.816,4.013V258.54z M251.597,252.502
						h-4.877v13.449h-2.696v-13.449h-4.834v-2.191h12.407V252.502z M265.83,258.54c0,1.532-0.265,2.877-0.795,4.033
						c-0.53,1.157-1.287,2.045-2.271,2.664c-0.985,0.62-2.118,0.93-3.4,0.93c-1.268,0-2.397-0.31-3.389-0.93
						c-0.992-0.619-1.759-1.502-2.299-2.647c-0.541-1.146-0.815-2.467-0.822-3.964v-0.881c0-1.525,0.271-2.872,0.811-4.039
						c0.541-1.167,1.304-2.061,2.289-2.68c0.984-0.62,2.114-0.93,3.389-0.93s2.404,0.307,3.389,0.918
						c0.985,0.613,1.746,1.494,2.283,2.643c0.537,1.15,0.81,2.487,0.816,4.013V258.54z M280.332,265.952h-2.911l-3.137-6.016h-3.029
						v6.016h-2.718v-15.641h5.5c1.805,0,3.197,0.405,4.179,1.215c0.981,0.811,1.472,1.982,1.472,3.516
						c0,1.047-0.252,1.923-0.758,2.629c-0.504,0.706-1.208,1.249-2.11,1.629l3.513,6.513V265.952z M285.133,265.952h-2.707v-15.641
						h2.707V265.952z M300.881,265.952h-2.718l-6.972-11.097v11.097h-2.718v-15.641h2.718l6.993,11.14v-11.14h2.696V265.952z
						 M295.819,241.853c-42.641,0.029-85.282,0.023-127.924,0.023c0-0.006,0-0.016,0-0.023c-42.641,0-85.281,0-127.922,0
						c-0.558,0-1.117,0.012-1.675-0.008c-10.079-0.344-14.326-7.922-9.161-16.598c7.065-11.867,14.278-23.648,21.433-35.465
						c29.464-48.648,58.883-97.323,88.43-145.92c6.65-10.939,12.929-22.109,20.113-32.723c4.481-6.622,13.121-7.031,17.488-0.406
						c7.21,10.942,13.885,22.22,20.409,33.594c5.735,9.999,12.089,19.641,18.11,29.476c7.163,11.699,14.276,23.428,21.386,35.16
						c22.949,37.87,45.89,75.745,68.821,113.626c1.666,2.752,3.493,5.422,3.645,8.85c0.223,5.061-2.556,8.904-7.516,9.885
						C299.614,241.687,297.7,241.851,295.819,241.853z M316.082,263.921c-0.565,0.737-1.35,1.296-2.353,1.676
						s-2.142,0.569-3.416,0.569c-1.311,0-2.471-0.297-3.48-0.892s-1.788-1.444-2.337-2.552c-0.547-1.105-0.832-2.396-0.854-3.872
						v-1.225c0-2.363,0.565-4.209,1.697-5.538c1.132-1.328,2.711-1.992,4.737-1.992c1.74,0,3.122,0.432,4.146,1.295
						c1.024,0.862,1.64,2.104,1.848,3.722h-2.664c-0.301-1.884-1.393-2.825-3.276-2.825c-1.218,0-2.143,0.438-2.777,1.313
						c-0.633,0.875-0.961,2.158-0.982,3.851v1.2c0,1.686,0.356,2.994,1.068,3.926c0.713,0.933,1.703,1.398,2.971,1.398
						c1.39,0,2.378-0.313,2.965-0.94v-3.045h-3.223v-2.063h5.93V263.921z"/>
				</g>
			</g>
		</g>
		<g>
			<path fill-rule="evenodd" clip-rule="evenodd" fill="#FFFFFF" d="M188.102,179.97v49.021h-14.469c0,0,0.006-61.563,0-62.677
				c-0.028-6.729,3.406-9.375,7.75-10.795c4.252-1.39,12.561,0.182,15.073,5.987c3.356,7.752,6.419,15.632,9.616,23.454
				c2.815,6.885,5.635,13.768,8.477,20.643c0.273,0.666,0.271,1.706,1.349,1.634c1.028-0.068,0.965-1.117,1.243-1.781
				c5.719-13.673,11.43-27.348,17.088-41.046c1.281-3.101,0.934-4.405,3.482-6.58c4.781-4.344,16.527-3.654,19.335,2.235
				c0.923,1.932,1.356,3.97,1.354,6.14c-0.032,19.762-0.024,62.786-0.024,62.786h-14.509c0,0-0.023-2.117-0.012-3.399
				c0.127-14.285,0.012-45.605,0.012-45.605s-13.046,28.864-16.534,38.201c-0.855,2.291-1.822,4.582-3.078,6.668
				c-2.02,3.35-4.885,5.207-9.111,4.999c-3.921-0.194-6.188-2.337-7.654-5.51c-2.427-5.255-4.618-10.619-6.899-15.94
				C196.599,199.095,188.102,179.97,188.102,179.97z"/>
			<path fill-rule="evenodd" clip-rule="evenodd" fill="#FFFFFF" d="M100.862,191.89c-2.368-3.439-2.774-7.263-2.723-11.373
				c0.038-2.981,0-5.962-0.11-8.984c-0.275-7.547,3.247-12.929,10.303-15.864c4.031-1.307,27.19-0.358,40.782-0.659
				c4.908-0.108,17.969-0.006,17.969-0.006v13.006c0,0-33.922,0.127-45.972-0.04c-9.614-0.133-10.471,2.926-9.454,12.624
				c0.323,3.085,2.929,4.411,7.416,4.431c10.156,0.044,20.31,0.012,30.465,0.03c11.36,0.022,17.164,5.694,17.286,16.959
				c0.045,4.128,0.119,8.271-0.178,12.38c-0.545,7.545-5.146,12.538-12.584,13.951c-1.856,0.352-3.756,0.654-5.635,0.661
				c-15.289,0.057-50.288-0.015-50.288-0.015s-0.001-3.714,0-4.345c0.003-1.339-0.029-2.679,0.003-4.015
				c0.03-1.267-0.003-4.88-0.003-4.88s33.417-0.003,47.591-0.012c6.131-0.004,7.49-1.284,7.88-7.317
				c0.057-0.889,0.111-1.78,0.12-2.673c0.055-5.49-1.825-7.511-7.35-7.555c-9.709-0.077-19.418-0.105-29.126-0.014
				c-5.26,0.047-10.192-0.738-14.383-4.206c0,0-0.073-0.078-0.073-0.078C101.915,193.048,101.352,192.564,100.862,191.89z"/>
			<path fill-rule="evenodd" clip-rule="evenodd" fill="#FFFFFF" d="M150.199,110.136"/>
			<path fill-rule="evenodd" clip-rule="evenodd" fill="#FFFFFF" d="M172.621,65.837c0.057,0.075,0.126,0.144,0.169,0.227
				c0.018,0.036-0.018,0.099-0.028,0.15c-0.03-0.139-0.059-0.276-0.087-0.417C172.676,65.796,172.621,65.837,172.621,65.837z"/>
			<polygon fill-rule="evenodd" clip-rule="evenodd" fill="#FFFFFF" points="78.795,154.996 91.562,155.003 91.586,228.991 
				78.903,228.991 			"/>
		</g>
		<path fill-rule="evenodd" clip-rule="evenodd" fill="#FFFFFF" d="M145.092,129.263c-0.413-0.676-1.365-2.234-2.318-3.794
			c-0.613,4.666-1.035,4.975-5.518,3.925c-0.469,0.864-0.954,1.762-1.442,2.661c-0.26-0.025-0.52-0.049-0.78-0.072
			c0.099-1.389,0.185-2.778,0.302-4.165c0.079-0.926,0.169-1.852,0.314-2.769c0.225-1.411,0.049-3.416,0.885-4.041
			c0.777-0.58,2.657,0.321,3.994,0.559c2.01-6.151,5.869,1.208,8.842-0.81c-0.521-2.967-0.782-6.196-1.743-9.202
			c-0.462-1.447-2.409-2.355-3.365-3.729c-0.811-1.164-1.998-3.138-1.554-3.889c1.087-1.838,2.795-3.563,4.656-4.639
			c5.165-2.988,10.537-5.62,15.405-8.171c-4.591-1.077-9.923-2.328-14.42-3.383c-1.483,2.513-2.395,6.091-4.372,6.836
			c-1.982,0.746-5.03-1.335-7.612-2.176c-0.212-0.558-0.425-1.116-0.637-1.673c-0.941,1.358-1.812,2.773-2.845,4.059
			c-0.948,1.182-2.07,2.226-4.054,3.069c0-2.688-0.043-5.376,0.039-8.062c0.015-0.506,0.412-1.275,0.832-1.452
			c3.244-1.374,3.004-3.696,2.634-6.695c-0.252-2.037,0.585-4.909,2.016-6.285c2.07-1.994,4.21,0.39,6.379,1.324
			c4.274,1.84,8.225,4.756,13.548,3.543c2.77-0.631,5.894,0.302,8.995,0.54c-0.577-1.433-1.163-2.776-1.663-4.15
			c-1.312-3.6-2.813-7.24,2.049-9.562c0.604-0.288,1.161-0.935,1.463-1.551c2.079-4.247,5.385-5.796,10.126-4.366
			c-0.274-0.401-0.548-0.804-0.823-1.205c1.391-1.191,2.626-2.915,4.228-3.379c0.99-0.288,2.536,1.339,3.724,2.042
			c2.768-0.463,6.653-2.364,9.202-1.238c3.614,1.596,5.542,5.783,5.522,9.997c1.242-0.12,3.448-0.638,3.59-0.297
			c0.738,1.774,1.852,4.213,1.168,5.594c-1.718,3.468-2.281,7.961-6.797,9.631c-0.447,0.166-0.571,2.236-0.265,3.245
			c1.532,5.041,3.885,9.921,4.717,15.058c0.662,4.082-0.441,8.453-0.788,12.692c-0.078,0.947-0.529,1.934-0.359,2.816
			c0.486,2.538-1.179,3.01-2.982,3.581c-2.858,0.906-5.827,1.638-8.482,2.976c-2.532,1.277-4.757,3.188-7.058,4.899
			c-3.768,2.805-7.225,6.159-11.302,8.382c-4.069,2.218-8.739,3.333-13.013,4.882c-0.126,1.718-0.211,2.879-0.296,4.039
			c-0.276,0.042-0.552,0.082-0.829,0.122c-0.407-1.091-0.813-2.182-1.233-3.309c-1.996,0-4.847,0.805-5.719-0.168
			c-1.79-1.994-2.757-4.869-3.568-7.531C143.55,132.879,144.496,131.398,145.092,129.263z M155.433,118.214
			c-1.295,1.369-2.589,2.738-3.884,4.107c0.252,0.297,0.505,0.595,0.756,0.893c4.364-3.405,10.38-3.845,14.567-7.57
			c-0.198-0.399-0.396-0.798-0.594-1.197c-3.272,1.142-6.546,2.284-9.818,3.426c0.055-1.659-4.886-1.453-1.864-3.8
			c3.601-2.799,3.463-6.344,3.727-9.96c-2.278,0-4.389,0-6.057,0c-2.225,5.213-3.422,10.231-0.865,15.36
			C152.745,119.053,154.088,118.634,155.433,118.214z M146.252,102.526c0.185,0.23,0.369,0.461,0.554,0.692
			c3.21-2.006,6.346-4.144,9.65-5.981c3.205-1.784,7.44-1.523,9.934-4.763C159.343,95.174,151.545,96.445,146.252,102.526z
			 M162.507,70.299c0.255,0.363,0.508,0.726,0.762,1.089c1.457-1.291,3.253-2.355,4.295-3.921c1.853-2.784,3.763-4.476,7.386-3.31
			c0.736,0.237,1.951-1.014,2.945-1.579c-3.451-0.228-6.83-0.395-9.312,1.016C166.092,65.011,164.497,67.999,162.507,70.299z
			 M150.026,83.084c5.161,0.444,10.497,0.973,15.848,1.28c0.736,0.042,1.535-1.017,2.306-1.566c-0.15-0.339-0.299-0.678-0.448-1.018
			C161.928,84.986,155.517,79.026,150.026,83.084z M153.638,133.093c5.967-0.324,9.828-3.136,10.137-6.417
			C160.333,128.854,156.987,130.974,153.638,133.093z M190,58.493c-5.566-0.512-6.868,3.718-9.708,5.818
			c0.292,0.397,0.582,0.794,0.873,1.193C183.9,63.332,186.635,61.161,190,58.493z M160.906,127.158
			c-0.19-0.277-0.381-0.554-0.571-0.831c-2.256,1.528-5.758,0.999-7.367,3.595c0.238,0.404,0.476,0.809,0.715,1.213
			C156.089,129.81,158.498,128.483,160.906,127.158z M135.56,83.198c0.227,0.046,0.453,0.093,0.681,0.14
			c0.709-1.439,1.418-2.878,2.127-4.317c-0.955-0.38-1.911-0.76-3.558-1.416C135.137,80.048,135.349,81.624,135.56,83.198z"/>
		<path fill-rule="evenodd" clip-rule="evenodd" fill="#FFFFFF" d="M139.237,140.335c-1.117,1.5-2.103,2.823-3.087,4.145
			c-0.277-0.093-0.554-0.187-0.831-0.281c0.258-1.134,0.448-2.291,0.789-3.401c0.574-1.866,1.283-3.693,1.861-5.56
			c0.641-2.066,2.471-2.958,3.731-1.654c1.633,1.691,2.799,4.135,3.376,6.451c0.543,2.17-1.824,3.355-3.797,2.11
			C140.616,141.728,140.085,141.099,139.237,140.335z"/>
	</g>
</g>
<g id="Layer_4" display="none">
	<g display="inline">
		<g>
			<path fill="#F4A07D" d="M296.92,182.711c-1.716,0-3.378-0.943-4.196-2.585c-1.166-2.313,2.235-23.804,4.741-23.114
				c6.413,1.761,12.48,8.339,16.919,3.166c-2.563-4.105-4.72-8.363-6.175-12.045c-3.853-9.788-3.997-17.553-0.391-22.447
				c4.634-6.295,9.354-6.06,11.771-5.357c6.84,1.999,10.317,12.15,10.65,17.141c0.623,9.336-1.182,16.699-4.498,22.694
				c3.541,4.629,6.888,7.652,8.464,7.942c2.55,0.478,4.229,2.938,3.751,5.487c-0.479,2.544-2.897,4.235-5.48,3.745
				c-4.047-0.754-8.471-4.479-12.517-9.367c-5.865,6.154-13.497,10.489-20.926,14.236
				C298.356,182.55,297.633,182.711,296.92,182.711z M317.028,129.393c-0.021,0.12-0.668,0.537-1.637,1.861
				c-1.122,1.52-1.391,5.959,1.557,13.431c0.817,2.051,1.736,4.043,2.729,5.937c1.094-3.621,1.501-7.731,1.182-12.521
				C320.648,134.854,318.366,130.125,317.028,129.393z"/>
		</g>
		<path fill="#E88C6D" d="M308.338,161.781c-3.315-0.943-7.028-3.712-10.873-4.769c-2.506-0.689-5.907,20.801-4.741,23.114
			c0.818,1.642,2.48,2.585,4.196,2.585c0.713,0,1.436-0.161,2.114-0.504c3.578-1.81,7.198-3.767,10.66-5.98
			C309.656,171.328,309.192,166.503,308.338,161.781z"/>
		<path fill="#F4A07D" d="M82.022,68.037c0-5.686,3.537-7.177,7.903-3.332L120.71,91.82l-38.688,19.413V68.037z"/>
		<path fill="#E88C6D" d="M82.022,111.233L120.71,91.82l-20.099-17.699L95.8,91.876c-4.897,3.136-9.505,6.553-13.777,10.22V111.233z
			"/>
		<g>
			<path fill="#F4A07D" d="M152.853,304.458h-28.192c-2.595,0-5.094-2.066-5.582-4.614l-7.641-40.109
				c-0.482-2.556,1.228-4.62,3.819-4.62h37.596c2.6,0,4.704,2.1,4.704,4.699v39.95C157.557,302.358,155.453,304.458,152.853,304.458
				z"/>
			<path fill="#F4A07D" d="M205.329,304.458h28.201c2.59,0,5.098-2.066,5.573-4.614l7.646-40.109c0.478-2.556-1.224-4.62-3.821-4.62
				h-37.6c-2.593,0-4.691,2.1-4.691,4.699v39.95C200.637,302.358,202.736,304.458,205.329,304.458z"/>
		</g>
		<path fill="#E88C6D" d="M152.853,255.114h-37.596c-2.591,0-4.301,2.064-3.819,4.62l1.864,9.751
			c12.999,6.126,29.08,9.862,44.254,9.273v-18.945C157.557,257.213,155.45,255.114,152.853,255.114z"/>
		<path fill="#E88C6D" d="M242.928,255.114h-37.6c-2.593,0-4.691,2.1-4.691,4.699v19.005c0,0,33.385-1.97,44.027-8.171l2.085-10.913
			C247.227,257.178,245.526,255.114,242.928,255.114z"/>
		<path fill="#F4A07D" d="M60.488,138.722c-2.227,4.501-7.823,8.323-13.014,8.323h-1.531c-5.19,0-9.4,4.041-9.4,9.024v41.337
			c0,4.979,4.21,9.02,9.4,9.02h1.536c5.187,0,10.783,3.826,13.02,8.326c18.792,37.848,64.8,64.596,118.597,64.596
			c70.507,0,127.672-45.942,127.672-102.611c0-56.673-57.165-102.614-127.672-102.614C125.298,74.122,79.291,100.869,60.488,138.722
			z"/>
		<path fill="#828487" d="M101.367,141.354c0,5.516-4.473,9.995-9.999,9.995c-5.513,0-9.986-4.479-9.986-9.995
			c0-5.521,4.474-9.991,9.986-9.991C96.894,131.363,101.367,135.833,101.367,141.354z"/>
		<path fill="#F4F7F9" d="M90.694,141.723c-1.242,2.412-3.762,3.574-5.638,2.607c-1.867-0.963-2.378-3.696-1.136-6.096
			c1.238-2.407,3.764-3.576,5.632-2.613C91.423,136.59,91.934,139.319,90.694,141.723z"/>
		<path fill="#F4A07D" d="M105.636,58.721c1.179-5.574,4.951-6.361,8.438-1.767l24.583,32.424L96.73,101.064L105.636,58.721z"/>
		<g>
			<path fill="#F4BBA6" d="M225.993,102.071c-0.862,0-1.729-0.225-2.513-0.699c-0.13-0.084-15.404-9.053-41.151-9.063
				c-0.026,0-0.048,0-0.075,0c-31.695,0-44.938,8.654-45.062,8.745c-2.115,1.422-5.047,0.948-6.542-1.068
				c-1.501-2.017-1.037-4.808,1.054-6.26c0.607-0.424,15.414-10.445,50.551-10.445c0.027,0,0.049,0,0.077,0
				c28.647,0.015,45.479,10.042,46.182,10.464c2.194,1.334,2.838,4.121,1.456,6.225C229.077,101.328,227.55,102.071,225.993,102.071
				z"/>
		</g>
		<g>
			<path fill="#E88C6D" d="M225.993,103.433c-0.862,0-1.729-0.226-2.513-0.697c-0.13-0.086-15.404-9.054-41.151-9.07
				c-0.026,0-0.048,0-0.075,0c-31.695,0-44.938,8.661-45.062,8.75c-2.115,1.426-5.047,0.952-6.542-1.066
				c-1.501-2.02-1.037-4.805,1.054-6.257c0.607-0.427,15.414-10.444,50.551-10.444c0.027,0,0.049,0,0.077,0
				c28.647,0.01,45.479,10.035,46.182,10.465c2.194,1.326,2.838,4.12,1.456,6.22C229.077,102.69,227.55,103.433,225.993,103.433z"/>
		</g>
		<polygon fill="#E88C6D" points="319.676,150.622 325.743,160.164 326.975,157.714 320.017,149.392 		"/>
		<path fill="#E88C6D" d="M295.099,170.595c-12.549,46.121-65.181,80.748-128.247,80.748c-34.581,0-66.027-10.416-89.453-27.419
			c-4.065-2.953-5.162-2.047-2.222,2.02c20.496,28.424,59.599,47.643,104.492,47.643c66.138,0,119.759-41.677,119.759-93.095
			c0-3.333-0.233-6.626-0.675-9.866C298.087,165.651,296.407,165.745,295.099,170.595z"/>
	</g>
	<path display="inline" fill="#F6D000" d="M217.603,29.656c0,20.295-16.449,36.749-36.751,36.749
		c-20.298,0-36.748-16.454-36.748-36.749c0-20.299,16.45-36.751,36.748-36.751C201.154-7.095,217.603,9.356,217.603,29.656z"/>
	<path display="inline" fill="#D7983E" d="M213.713,29.656c0,18.146-14.717,32.862-32.861,32.862
		c-18.146,0-32.856-14.715-32.856-32.862c0-18.152,14.71-32.864,32.856-32.864C198.997-3.208,213.713,11.503,213.713,29.656z"/>
	<path display="inline" fill="#FBDE13" d="M213.713,32.165c0,18.138-14.717,32.86-32.861,32.86
		c-18.156,0-32.852-14.722-32.852-32.86c0-18.157,14.695-32.856,32.852-32.856C198.997-0.692,213.713,14.007,213.713,32.165z"/>
	<path display="inline" opacity="0.22" fill="#FFFFFF" d="M213.713,32.165c0,18.138-14.717,32.86-32.861,32.86V-0.692
		C198.997-0.692,213.713,14.007,213.713,32.165z"/>
	<path display="inline" fill="#FCC400" d="M202.352-0.147c-6.026-4.381-13.462-6.952-21.5-6.952
		c-20.295,0-36.748,16.454-36.748,36.75c0,8.02,2.574,15.452,6.947,21.5c6.686,9.241,17.547,15.25,29.801,15.25
		c20.302,0,36.751-16.454,36.751-36.75C217.603,17.39,211.586,6.515,202.352-0.147z M180.852,62.51
		c-11.208,0-21.076-5.597-27.011-14.149c-3.691-5.313-5.846-11.759-5.846-18.71c0-18.156,14.7-32.859,32.856-32.859
		c6.953,0,13.403,2.157,18.713,5.847c8.551,5.933,14.148,15.804,14.148,27.012C213.713,47.794,198.994,62.51,180.852,62.51z"/>
	<path display="inline" fill="#F8B200" d="M217.603,29.661c0,20.296-16.444,36.75-36.751,36.75
		c-12.254,0-23.115-6.017-29.801-15.252l2.799-2.79c5.928,8.552,15.799,14.148,27.002,14.148c18.145,0,32.861-14.717,32.861-32.857
		c0-11.21-5.588-21.083-14.146-27.014l2.788-2.789C211.593,6.523,217.603,17.399,217.603,29.661z"/>
	<g display="inline">
		<g>
			<linearGradient id="SVGID_1_" gradientUnits="userSpaceOnUse" x1="144.1147" y1="29.7446" x2="217.8628" y2="29.7446">
				<stop  offset="0" style="stop-color:#FFFFFF"/>
				<stop  offset="1" style="stop-color:#F8B200"/>
			</linearGradient>
			<path fill="url(#SVGID_1_)" d="M180.992,66.614c-20.333,0-36.877-16.538-36.877-36.872c0-20.329,16.544-36.867,36.877-36.867
				c20.326,0,36.871,16.539,36.871,36.867C217.863,50.077,201.318,66.614,180.992,66.614z M180.992-6.886
				c-20.202,0-36.634,16.431-36.634,36.628c0,20.2,16.432,36.63,36.634,36.63c20.196,0,36.626-16.431,36.626-36.63
				C217.618,9.545,201.188-6.886,180.992-6.886z"/>
		</g>
	</g>
</g>
<g id="DriveSave" display="none">
	<g display="inline">
		<g id="Smartphone2_2_">
			<path fill="#3F3F3F" d="M321.06,55.519V3.528c0-6.15-4.986-11.136-11.136-11.136H175.352c-6.15,0-11.138,4.986-11.138,11.136
				v43.513h-1.16v42.476h1.16v4.516h-1.16v13.858h1.16v180.562c0,6.147,4.987,11.133,11.138,11.133l134.572,0.002
				c6.149,0,11.136-4.987,11.136-11.135V81.041h1.161V55.519H321.06z"/>
			<path fill="#4D4C4C" d="M175.352-7.608c-6.15,0-11.138,4.986-11.138,11.137v43.513h-1.16v42.475h1.16v4.516h-1.16v13.858h1.16
				v180.562c0,6.147,4.987,11.135,11.138,11.135h18.18L267.865-7.608H175.352z"/>
			<g>
				<g>
					<path fill="#CDCCCC" d="M300.951,2.682c2.018,0,3.663,1.642,3.663,3.662s-1.646,3.661-3.663,3.661
						c-2.02,0-3.661-1.641-3.661-3.661S298.931,2.682,300.951,2.682L300.951,2.682z M300.951,9.5c1.74,0,3.157-1.416,3.157-3.156
						c0-1.741-1.417-3.157-3.157-3.157s-3.156,1.416-3.156,3.157C297.794,8.083,299.21,9.5,300.951,9.5L300.951,9.5z"/>
				</g>
				<g>
					<path fill="#4E4D4D" d="M303.511,6.343c0,1.414-1.144,2.56-2.561,2.56c-1.413,0-2.56-1.146-2.56-2.56
						c0-1.413,1.146-2.56,2.56-2.56C302.368,3.784,303.511,4.93,303.511,6.343z"/>
				</g>
				<g>
					<path fill="#CDCCCC" d="M303.258,6.343c-2.192,0-3.292,0-4.613,0c0-1.273,1.032-2.308,2.306-2.308S303.258,5.07,303.258,6.343z
						"/>
				</g>
			</g>
			<g>
				<g>
					<path fill="#FBFBFB" d="M259.19,277.418c0,1.665-1.366,3.03-3.032,3.03H229.12c-1.668,0-3.033-1.365-3.033-3.03v-7.635
						c0-1.67,1.365-3.032,3.033-3.032h27.038c1.666,0,3.032,1.362,3.032,3.032V277.418z"/>
				</g>
				<g>
					<path fill="#CDCCCC" d="M229.12,266.245h27.038c1.949,0,3.537,1.588,3.537,3.539v7.635c0,1.948-1.588,3.536-3.537,3.536H229.12
						c-1.95,0-3.537-1.588-3.537-3.536v-7.635C225.583,267.833,227.169,266.245,229.12,266.245L229.12,266.245z M256.158,279.944
						c1.393,0,2.525-1.134,2.525-2.525v-7.635c0-1.395-1.133-2.529-2.525-2.529H229.12c-1.395,0-2.527,1.135-2.527,2.529v7.635
						c0,1.392,1.133,2.525,2.527,2.525H256.158L256.158,279.944z"/>
				</g>
			</g>
			<g>
				<g>
					<path fill="#68728C" d="M311.78,250.317c0,0.555-0.455,1.012-1.011,1.012H174.507c-0.556,0-1.013-0.458-1.013-1.012V20.935
						c0-0.555,0.457-1.01,1.013-1.01h136.262c0.556,0,1.011,0.455,1.011,1.01V250.317z"/>
				</g>
				<g>
					<polygon fill="#707992" points="173.495,19.925 173.495,251.329 205.175,251.329 261.011,19.925 					"/>
				</g>
			</g>
			<g>
				<g>
					<rect x="203.622" y="3.282" fill="#FFFFFF" width="78.032" height="6.125"/>
				</g>
				<g>
					<rect x="204.182" y="3.818" fill="#CDCCCC" width="0.89" height="1.516"/>
				</g>
				<g>
					<rect x="205.471" y="3.818" fill="#CDCCCC" width="0.889" height="1.516"/>
				</g>
				<g>
					<rect x="206.761" y="3.818" fill="#CDCCCC" width="0.886" height="1.516"/>
				</g>
				<g>
					<rect x="208.048" y="3.818" fill="#CDCCCC" width="0.889" height="1.516"/>
				</g>
				<g>
					<rect x="209.339" y="3.818" fill="#CDCCCC" width="0.886" height="1.516"/>
				</g>
				<g>
					<rect x="210.627" y="3.818" fill="#CDCCCC" width="0.888" height="1.516"/>
				</g>
				<g>
					<rect x="211.914" y="3.818" fill="#CDCCCC" width="0.89" height="1.516"/>
				</g>
				<g>
					<rect x="213.203" y="3.818" fill="#CDCCCC" width="0.888" height="1.516"/>
				</g>
				<g>
					<rect x="214.493" y="3.818" fill="#CDCCCC" width="0.887" height="1.516"/>
				</g>
				<g>
					<rect x="215.781" y="3.818" fill="#CDCCCC" width="0.889" height="1.516"/>
				</g>
				<g>
					<rect x="217.069" y="3.818" fill="#CDCCCC" width="0.888" height="1.516"/>
				</g>
				<g>
					<rect x="218.358" y="3.818" fill="#CDCCCC" width="0.886" height="1.516"/>
				</g>
				<g>
					<rect x="219.645" y="3.818" fill="#CDCCCC" width="0.889" height="1.516"/>
				</g>
				<g>
					<rect x="220.933" y="3.818" fill="#CDCCCC" width="0.887" height="1.516"/>
				</g>
				<g>
					<rect x="222.222" y="3.818" fill="#CDCCCC" width="0.888" height="1.516"/>
				</g>
				<g>
					<rect x="223.51" y="3.818" fill="#CDCCCC" width="0.889" height="1.516"/>
				</g>
				<g>
					<rect x="224.799" y="3.818" fill="#CDCCCC" width="0.89" height="1.516"/>
				</g>
				<g>
					<rect x="226.089" y="3.818" fill="#CDCCCC" width="0.886" height="1.516"/>
				</g>
				<g>
					<rect x="227.376" y="3.818" fill="#CDCCCC" width="0.887" height="1.516"/>
				</g>
				<g>
					<rect x="228.666" y="3.818" fill="#CDCCCC" width="0.888" height="1.516"/>
				</g>
				<g>
					<rect x="229.956" y="3.818" fill="#CDCCCC" width="0.887" height="1.516"/>
				</g>
				<g>
					<rect x="231.241" y="3.818" fill="#CDCCCC" width="0.891" height="1.516"/>
				</g>
				<g>
					<rect x="232.531" y="3.818" fill="#CDCCCC" width="0.889" height="1.516"/>
				</g>
				<g>
					<rect x="233.818" y="3.818" fill="#CDCCCC" width="0.89" height="1.516"/>
				</g>
				<g>
					<rect x="235.109" y="3.818" fill="#CDCCCC" width="0.885" height="1.516"/>
				</g>
				<g>
					<rect x="236.396" y="3.818" fill="#CDCCCC" width="0.888" height="1.516"/>
				</g>
				<g>
					<rect x="237.685" y="3.818" fill="#CDCCCC" width="0.887" height="1.516"/>
				</g>
				<g>
					<rect x="238.974" y="3.818" fill="#CDCCCC" width="0.887" height="1.516"/>
				</g>
				<g>
					<rect x="240.26" y="3.818" fill="#CDCCCC" width="0.892" height="1.516"/>
				</g>
				<g>
					<rect x="241.55" y="3.818" fill="#CDCCCC" width="0.886" height="1.516"/>
				</g>
				<g>
					<rect x="242.838" y="3.818" fill="#CDCCCC" width="0.888" height="1.516"/>
				</g>
				<g>
					<rect x="244.127" y="3.818" fill="#CDCCCC" width="0.889" height="1.516"/>
				</g>
				<g>
					<rect x="245.416" y="3.818" fill="#CDCCCC" width="0.888" height="1.516"/>
				</g>
				<g>
					<rect x="246.707" y="3.818" fill="#CDCCCC" width="0.886" height="1.516"/>
				</g>
				<g>
					<rect x="247.993" y="3.818" fill="#CDCCCC" width="0.888" height="1.516"/>
				</g>
				<g>
					<rect x="249.282" y="3.818" fill="#CDCCCC" width="0.886" height="1.516"/>
				</g>
				<g>
					<rect x="250.57" y="3.818" fill="#CDCCCC" width="0.889" height="1.516"/>
				</g>
				<g>
					<rect x="251.857" y="3.818" fill="#CDCCCC" width="0.89" height="1.516"/>
				</g>
				<g>
					<rect x="253.147" y="3.818" fill="#CDCCCC" width="0.887" height="1.516"/>
				</g>
				<g>
					<rect x="254.434" y="3.818" fill="#CDCCCC" width="0.888" height="1.516"/>
				</g>
				<g>
					<rect x="255.723" y="3.818" fill="#CDCCCC" width="0.887" height="1.516"/>
				</g>
				<g>
					<rect x="257.012" y="3.818" fill="#CDCCCC" width="0.887" height="1.516"/>
				</g>
				<g>
					<rect x="258.302" y="3.818" fill="#CDCCCC" width="0.886" height="1.516"/>
				</g>
				<g>
					<rect x="259.588" y="3.818" fill="#CDCCCC" width="0.89" height="1.516"/>
				</g>
				<g>
					<rect x="260.876" y="3.818" fill="#CDCCCC" width="0.889" height="1.516"/>
				</g>
				<g>
					<rect x="262.167" y="3.818" fill="#CDCCCC" width="0.887" height="1.516"/>
				</g>
				<g>
					<rect x="263.455" y="3.818" fill="#CDCCCC" width="0.887" height="1.516"/>
				</g>
				<g>
					<rect x="264.744" y="3.818" fill="#CDCCCC" width="0.886" height="1.516"/>
				</g>
				<g>
					<rect x="266.034" y="3.818" fill="#CDCCCC" width="0.887" height="1.516"/>
				</g>
				<g>
					<rect x="267.321" y="3.818" fill="#CDCCCC" width="0.889" height="1.516"/>
				</g>
				<g>
					<rect x="268.609" y="3.818" fill="#CDCCCC" width="0.89" height="1.516"/>
				</g>
				<g>
					<rect x="269.897" y="3.818" fill="#CDCCCC" width="0.887" height="1.516"/>
				</g>
				<g>
					<rect x="271.185" y="3.818" fill="#CDCCCC" width="0.89" height="1.516"/>
				</g>
				<g>
					<rect x="272.474" y="3.818" fill="#CDCCCC" width="0.889" height="1.516"/>
				</g>
				<g>
					<rect x="273.762" y="3.818" fill="#CDCCCC" width="0.887" height="1.516"/>
				</g>
				<g>
					<rect x="275.05" y="3.818" fill="#CDCCCC" width="0.889" height="1.516"/>
				</g>
				<g>
					<rect x="276.339" y="3.818" fill="#CDCCCC" width="0.888" height="1.516"/>
				</g>
				<g>
					<rect x="277.629" y="3.818" fill="#CDCCCC" width="0.887" height="1.516"/>
				</g>
				<g>
					<rect x="278.917" y="3.818" fill="#CDCCCC" width="0.889" height="1.516"/>
				</g>
				<g>
					<rect x="280.205" y="3.818" fill="#CDCCCC" width="0.89" height="1.516"/>
				</g>
				<g>
					<rect x="204.182" y="5.585" fill="#CDCCCC" width="0.89" height="1.517"/>
				</g>
				<g>
					<rect x="205.471" y="5.585" fill="#CDCCCC" width="0.889" height="1.517"/>
				</g>
				<g>
					<rect x="206.761" y="5.585" fill="#CDCCCC" width="0.886" height="1.517"/>
				</g>
				<g>
					<rect x="208.048" y="5.585" fill="#CDCCCC" width="0.889" height="1.517"/>
				</g>
				<g>
					<rect x="209.339" y="5.585" fill="#CDCCCC" width="0.886" height="1.517"/>
				</g>
				<g>
					<rect x="210.627" y="5.585" fill="#CDCCCC" width="0.888" height="1.517"/>
				</g>
				<g>
					<rect x="211.914" y="5.585" fill="#CDCCCC" width="0.89" height="1.517"/>
				</g>
				<g>
					<rect x="213.203" y="5.585" fill="#CDCCCC" width="0.888" height="1.517"/>
				</g>
				<g>
					<rect x="214.493" y="5.585" fill="#CDCCCC" width="0.887" height="1.517"/>
				</g>
				<g>
					<rect x="215.781" y="5.585" fill="#CDCCCC" width="0.889" height="1.517"/>
				</g>
				<g>
					<rect x="217.069" y="5.585" fill="#CDCCCC" width="0.888" height="1.517"/>
				</g>
				<g>
					<rect x="218.358" y="5.585" fill="#CDCCCC" width="0.886" height="1.517"/>
				</g>
				<g>
					<rect x="219.645" y="5.585" fill="#CDCCCC" width="0.889" height="1.517"/>
				</g>
				<g>
					<rect x="220.933" y="5.585" fill="#CDCCCC" width="0.887" height="1.517"/>
				</g>
				<g>
					<rect x="222.222" y="5.585" fill="#CDCCCC" width="0.888" height="1.517"/>
				</g>
				<g>
					<rect x="223.51" y="5.585" fill="#CDCCCC" width="0.889" height="1.517"/>
				</g>
				<g>
					<rect x="224.799" y="5.585" fill="#CDCCCC" width="0.89" height="1.517"/>
				</g>
				<g>
					<rect x="226.089" y="5.585" fill="#CDCCCC" width="0.886" height="1.517"/>
				</g>
				<g>
					<rect x="227.376" y="5.585" fill="#CDCCCC" width="0.887" height="1.517"/>
				</g>
				<g>
					<rect x="228.666" y="5.585" fill="#CDCCCC" width="0.888" height="1.517"/>
				</g>
				<g>
					<rect x="229.956" y="5.585" fill="#CDCCCC" width="0.887" height="1.517"/>
				</g>
				<g>
					<rect x="231.241" y="5.585" fill="#CDCCCC" width="0.891" height="1.517"/>
				</g>
				<g>
					<rect x="232.531" y="5.585" fill="#CDCCCC" width="0.889" height="1.517"/>
				</g>
				<g>
					<rect x="233.818" y="5.585" fill="#CDCCCC" width="0.89" height="1.517"/>
				</g>
				<g>
					<rect x="235.109" y="5.585" fill="#CDCCCC" width="0.885" height="1.517"/>
				</g>
				<g>
					<rect x="236.396" y="5.585" fill="#CDCCCC" width="0.888" height="1.517"/>
				</g>
				<g>
					<rect x="237.685" y="5.585" fill="#CDCCCC" width="0.887" height="1.517"/>
				</g>
				<g>
					<rect x="238.974" y="5.585" fill="#CDCCCC" width="0.887" height="1.517"/>
				</g>
				<g>
					<rect x="240.26" y="5.585" fill="#CDCCCC" width="0.892" height="1.517"/>
				</g>
				<g>
					<rect x="241.55" y="5.585" fill="#CDCCCC" width="0.886" height="1.517"/>
				</g>
				<g>
					<rect x="242.838" y="5.585" fill="#CDCCCC" width="0.888" height="1.517"/>
				</g>
				<g>
					<rect x="244.127" y="5.585" fill="#CDCCCC" width="0.889" height="1.517"/>
				</g>
				<g>
					<rect x="245.416" y="5.585" fill="#CDCCCC" width="0.888" height="1.517"/>
				</g>
				<g>
					<rect x="246.707" y="5.585" fill="#CDCCCC" width="0.886" height="1.517"/>
				</g>
				<g>
					<rect x="247.993" y="5.585" fill="#CDCCCC" width="0.888" height="1.517"/>
				</g>
				<g>
					<rect x="249.282" y="5.585" fill="#CDCCCC" width="0.886" height="1.517"/>
				</g>
				<g>
					<rect x="250.57" y="5.585" fill="#CDCCCC" width="0.889" height="1.517"/>
				</g>
				<g>
					<rect x="251.857" y="5.585" fill="#CDCCCC" width="0.89" height="1.517"/>
				</g>
				<g>
					<rect x="253.147" y="5.585" fill="#CDCCCC" width="0.887" height="1.517"/>
				</g>
				<g>
					<rect x="254.434" y="5.585" fill="#CDCCCC" width="0.888" height="1.517"/>
				</g>
				<g>
					<rect x="255.723" y="5.585" fill="#CDCCCC" width="0.887" height="1.517"/>
				</g>
				<g>
					<rect x="257.012" y="5.585" fill="#CDCCCC" width="0.887" height="1.517"/>
				</g>
				<g>
					<rect x="258.302" y="5.585" fill="#CDCCCC" width="0.886" height="1.517"/>
				</g>
				<g>
					<rect x="259.588" y="5.585" fill="#CDCCCC" width="0.89" height="1.517"/>
				</g>
				<g>
					<rect x="260.876" y="5.585" fill="#CDCCCC" width="0.889" height="1.517"/>
				</g>
				<g>
					<rect x="262.167" y="5.585" fill="#CDCCCC" width="0.887" height="1.517"/>
				</g>
				<g>
					<rect x="263.455" y="5.585" fill="#CDCCCC" width="0.887" height="1.517"/>
				</g>
				<g>
					<rect x="264.744" y="5.585" fill="#CDCCCC" width="0.886" height="1.517"/>
				</g>
				<g>
					<rect x="266.034" y="5.585" fill="#CDCCCC" width="0.887" height="1.517"/>
				</g>
				<g>
					<rect x="267.321" y="5.585" fill="#CDCCCC" width="0.889" height="1.517"/>
				</g>
				<g>
					<rect x="268.609" y="5.585" fill="#CDCCCC" width="0.89" height="1.517"/>
				</g>
				<g>
					<rect x="269.897" y="5.585" fill="#CDCCCC" width="0.887" height="1.517"/>
				</g>
				<g>
					<rect x="271.185" y="5.585" fill="#CDCCCC" width="0.89" height="1.517"/>
				</g>
				<g>
					<rect x="272.474" y="5.585" fill="#CDCCCC" width="0.889" height="1.517"/>
				</g>
				<g>
					<rect x="273.762" y="5.585" fill="#CDCCCC" width="0.887" height="1.517"/>
				</g>
				<g>
					<rect x="275.05" y="5.585" fill="#CDCCCC" width="0.889" height="1.517"/>
				</g>
				<g>
					<rect x="276.339" y="5.585" fill="#CDCCCC" width="0.888" height="1.517"/>
				</g>
				<g>
					<rect x="277.629" y="5.585" fill="#CDCCCC" width="0.887" height="1.517"/>
				</g>
				<g>
					<rect x="278.917" y="5.585" fill="#CDCCCC" width="0.889" height="1.517"/>
				</g>
				<g>
					<rect x="280.205" y="5.585" fill="#CDCCCC" width="0.89" height="1.517"/>
				</g>
				<g>
					<rect x="204.182" y="7.354" fill="#CDCCCC" width="0.89" height="1.516"/>
				</g>
				<g>
					<rect x="205.471" y="7.354" fill="#CDCCCC" width="0.889" height="1.516"/>
				</g>
				<g>
					<rect x="206.761" y="7.354" fill="#CDCCCC" width="0.886" height="1.516"/>
				</g>
				<g>
					<rect x="208.048" y="7.354" fill="#CDCCCC" width="0.889" height="1.516"/>
				</g>
				<g>
					<rect x="209.339" y="7.354" fill="#CDCCCC" width="0.886" height="1.516"/>
				</g>
				<g>
					<rect x="210.627" y="7.354" fill="#CDCCCC" width="0.888" height="1.516"/>
				</g>
				<g>
					<rect x="211.914" y="7.354" fill="#CDCCCC" width="0.89" height="1.516"/>
				</g>
				<g>
					<rect x="213.203" y="7.354" fill="#CDCCCC" width="0.888" height="1.516"/>
				</g>
				<g>
					<rect x="214.493" y="7.354" fill="#CDCCCC" width="0.887" height="1.516"/>
				</g>
				<g>
					<rect x="215.781" y="7.354" fill="#CDCCCC" width="0.889" height="1.516"/>
				</g>
				<g>
					<rect x="217.069" y="7.354" fill="#CDCCCC" width="0.888" height="1.516"/>
				</g>
				<g>
					<rect x="218.358" y="7.354" fill="#CDCCCC" width="0.886" height="1.516"/>
				</g>
				<g>
					<rect x="219.645" y="7.354" fill="#CDCCCC" width="0.889" height="1.516"/>
				</g>
				<g>
					<rect x="220.933" y="7.354" fill="#CDCCCC" width="0.887" height="1.516"/>
				</g>
				<g>
					<rect x="222.222" y="7.354" fill="#CDCCCC" width="0.888" height="1.516"/>
				</g>
				<g>
					<rect x="223.51" y="7.354" fill="#CDCCCC" width="0.889" height="1.516"/>
				</g>
				<g>
					<rect x="224.799" y="7.354" fill="#CDCCCC" width="0.89" height="1.516"/>
				</g>
				<g>
					<rect x="226.089" y="7.354" fill="#CDCCCC" width="0.886" height="1.516"/>
				</g>
				<g>
					<rect x="227.376" y="7.354" fill="#CDCCCC" width="0.887" height="1.516"/>
				</g>
				<g>
					<rect x="228.666" y="7.354" fill="#CDCCCC" width="0.888" height="1.516"/>
				</g>
				<g>
					<rect x="229.956" y="7.354" fill="#CDCCCC" width="0.887" height="1.516"/>
				</g>
				<g>
					<rect x="231.241" y="7.354" fill="#CDCCCC" width="0.891" height="1.516"/>
				</g>
				<g>
					<rect x="232.531" y="7.354" fill="#CDCCCC" width="0.889" height="1.516"/>
				</g>
				<g>
					<rect x="233.818" y="7.354" fill="#CDCCCC" width="0.89" height="1.516"/>
				</g>
				<g>
					<rect x="235.109" y="7.354" fill="#CDCCCC" width="0.885" height="1.516"/>
				</g>
				<g>
					<rect x="236.396" y="7.354" fill="#CDCCCC" width="0.888" height="1.516"/>
				</g>
				<g>
					<rect x="237.685" y="7.354" fill="#CDCCCC" width="0.887" height="1.516"/>
				</g>
				<g>
					<rect x="238.974" y="7.354" fill="#CDCCCC" width="0.887" height="1.516"/>
				</g>
				<g>
					<rect x="240.26" y="7.354" fill="#CDCCCC" width="0.892" height="1.516"/>
				</g>
				<g>
					<rect x="241.55" y="7.354" fill="#CDCCCC" width="0.886" height="1.516"/>
				</g>
				<g>
					<rect x="242.838" y="7.354" fill="#CDCCCC" width="0.888" height="1.516"/>
				</g>
				<g>
					<rect x="244.127" y="7.354" fill="#CDCCCC" width="0.889" height="1.516"/>
				</g>
				<g>
					<rect x="245.416" y="7.354" fill="#CDCCCC" width="0.888" height="1.516"/>
				</g>
				<g>
					<rect x="246.707" y="7.354" fill="#CDCCCC" width="0.886" height="1.516"/>
				</g>
				<g>
					<rect x="247.993" y="7.354" fill="#CDCCCC" width="0.888" height="1.516"/>
				</g>
				<g>
					<rect x="249.282" y="7.354" fill="#CDCCCC" width="0.886" height="1.516"/>
				</g>
				<g>
					<rect x="250.57" y="7.354" fill="#CDCCCC" width="0.889" height="1.516"/>
				</g>
				<g>
					<rect x="251.857" y="7.354" fill="#CDCCCC" width="0.89" height="1.516"/>
				</g>
				<g>
					<rect x="253.147" y="7.354" fill="#CDCCCC" width="0.887" height="1.516"/>
				</g>
				<g>
					<rect x="254.434" y="7.354" fill="#CDCCCC" width="0.888" height="1.516"/>
				</g>
				<g>
					<rect x="255.723" y="7.354" fill="#CDCCCC" width="0.887" height="1.516"/>
				</g>
				<g>
					<rect x="257.012" y="7.354" fill="#CDCCCC" width="0.887" height="1.516"/>
				</g>
				<g>
					<rect x="258.302" y="7.354" fill="#CDCCCC" width="0.886" height="1.516"/>
				</g>
				<g>
					<rect x="259.588" y="7.354" fill="#CDCCCC" width="0.89" height="1.516"/>
				</g>
				<g>
					<rect x="260.876" y="7.354" fill="#CDCCCC" width="0.889" height="1.516"/>
				</g>
				<g>
					<rect x="262.167" y="7.354" fill="#CDCCCC" width="0.887" height="1.516"/>
				</g>
				<g>
					<rect x="263.455" y="7.354" fill="#CDCCCC" width="0.887" height="1.516"/>
				</g>
				<g>
					<rect x="264.744" y="7.354" fill="#CDCCCC" width="0.886" height="1.516"/>
				</g>
				<g>
					<rect x="266.034" y="7.354" fill="#CDCCCC" width="0.887" height="1.516"/>
				</g>
				<g>
					<rect x="267.321" y="7.354" fill="#CDCCCC" width="0.889" height="1.516"/>
				</g>
				<g>
					<rect x="268.609" y="7.354" fill="#CDCCCC" width="0.89" height="1.516"/>
				</g>
				<g>
					<rect x="269.897" y="7.354" fill="#CDCCCC" width="0.887" height="1.516"/>
				</g>
				<g>
					<rect x="271.185" y="7.354" fill="#CDCCCC" width="0.89" height="1.516"/>
				</g>
				<g>
					<rect x="272.474" y="7.354" fill="#CDCCCC" width="0.889" height="1.516"/>
				</g>
				<g>
					<rect x="273.762" y="7.354" fill="#CDCCCC" width="0.887" height="1.516"/>
				</g>
				<g>
					<rect x="275.05" y="7.354" fill="#CDCCCC" width="0.889" height="1.516"/>
				</g>
				<g>
					<rect x="276.339" y="7.354" fill="#CDCCCC" width="0.888" height="1.516"/>
				</g>
				<g>
					<rect x="277.629" y="7.354" fill="#CDCCCC" width="0.887" height="1.516"/>
				</g>
				<g>
					<rect x="278.917" y="7.354" fill="#CDCCCC" width="0.889" height="1.516"/>
				</g>
				<g>
					<rect x="280.205" y="7.354" fill="#CDCCCC" width="0.89" height="1.516"/>
				</g>
			</g>
		</g>
		<path fill="#FFFFFF" d="M291.45,243.502v-13.927c-1.206,0.501-2.613,0.827-4.229,0.971c-2.579,0.23-6.75,0.448-11.811,0.635
			v12.321"/>
		<path fill="#FFFFFF" d="M208.265,243.502v-12.319c-5.082-0.188-9.271-0.405-11.858-0.637c-1.594-0.143-2.987-0.459-4.181-0.948
			v13.904"/>
		<g>
			<g>
				<path fill="#FFFFFF" d="M287.349,192.201c-2.35-16.411-5.083-36.392-21.214-36.392c-16.854,0-14.083,0-24.276,0
					c-10.195,0-7.424,0-24.277,0c-16.127,0-18.863,19.969-21.212,36.374c-8.649,4.584-7.793,14.634-7.793,20.279
					c0,7.068,0,5.586,0,8.304s0.407,7.476,8.02,8.155c7.611,0.681,28.407,1.224,45.263,1.224c16.854,0,37.65-0.543,45.262-1.224
					c7.612-0.68,8.019-5.438,8.019-8.155s0-1.088,0-8.155C295.139,206.967,295.997,196.824,287.349,192.201z M202.26,182.792
					c1.723-11.712,6.738-22.313,17.945-22.313c15.168,0,12.478,0,21.653,0c9.174,0,6.483,0,21.652,0
					c11.484,0,16.369,11.136,18.071,23.187c0.169,2.96-1.137,4.447-5.591,4.2c-4.895-0.272-21.04-1.088-34.089-1.088
					c-0.007,0-0.016,0.001-0.022,0.001c-0.008,0-0.015-0.001-0.021-0.001c-13.05,0-29.196,0.815-34.089,1.088
					C202.894,188.136,201.786,186.334,202.26,182.792z M193.07,206.653c-0.125-1.982,1.688-6.068,8.319-3.592
					c3.099,1.155,4.529,1.912,7.042,3.663c5.381,3.746,3.35,5.841,2.291,6.372c-1.058,0.531-2.785,1.145-7.65,0.076
					c-2.273-0.499-3.387-0.721-5.518-1.163C192.989,211.062,193.195,208.636,193.07,206.653z M222.726,226.137l-24.875-1.175
					c-1.501,0-2.718-1.217-2.718-2.719s1.217-1.544,2.718-1.544h24.875c1.501,0,2.718,1.218,2.718,2.719
					S224.227,226.137,222.726,226.137z M214.866,208.469c-1.555-0.685-2.126-2.36-1.3-3.671c0.826-1.312,2.112-2.511,3.614-2.511
					c18.395,0,30.921,0,49.314,0c1.502,0,2.789,1.199,3.615,2.511c0.826,1.311,0.255,2.986-1.3,3.671
					C248.448,216.279,235.228,216.279,214.866,208.469z M285.844,224.962l-24.875,1.175c-1.5,0-2.718-1.218-2.718-2.719
					s1.218-2.719,2.718-2.719h24.875c1.501,0,2.719,0.042,2.719,1.544S287.345,224.962,285.844,224.962z M290.666,206.653
					c-0.125,1.983,0.081,4.409-4.483,5.356c-2.132,0.442-3.245,0.664-5.518,1.163c-4.866,1.068-6.593,0.455-7.65-0.076
					c-1.059-0.531-3.09-2.626,2.291-6.372c2.514-1.751,3.942-2.508,7.042-3.663C288.978,200.584,290.792,204.67,290.666,206.653z"/>
			</g>
		</g>
		<g>
			<g>
				<path fill="#9AC556" stroke="#FFFFFF" stroke-width="2" stroke-miterlimit="10" d="M301.946,78.445
					c0,1.56-0.595,3.119-1.785,4.309c-2.379,2.379-6.238,2.379-8.616,0c-13.236-13.236-30.834-20.525-49.552-20.525
					s-36.315,7.29-49.551,20.525c-2.379,2.379-6.238,2.379-8.617,0c-2.38-2.38-2.38-6.238,0-8.618
					c15.538-15.537,36.195-24.094,58.168-24.094s42.631,8.557,58.168,24.094C301.351,75.327,301.946,76.886,301.946,78.445z"/>
			</g>
			<g>
				<path fill="#9AC556" stroke="#FFFFFF" stroke-width="2" stroke-miterlimit="10" d="M288.481,96.973
					c0,1.56-0.595,3.119-1.785,4.309c-2.379,2.379-6.238,2.379-8.616,0c-9.641-9.639-22.455-14.947-36.087-14.947
					c-13.631,0-26.446,5.309-36.086,14.948c-2.379,2.379-6.238,2.379-8.616,0c-2.381-2.38-2.381-6.238,0-8.618
					c11.939-11.941,27.815-18.517,44.702-18.517s32.763,6.576,44.703,18.516C287.886,93.854,288.481,95.413,288.481,96.973z"/>
			</g>
			<g>
				<path fill="#9AC556" stroke="#FFFFFF" stroke-width="2" stroke-miterlimit="10" d="M275.016,115.5
					c0,1.559-0.595,3.118-1.785,4.308c-2.379,2.38-6.238,2.38-8.616,0c-12.475-12.472-32.77-12.472-45.243,0.001
					c-2.379,2.379-6.238,2.379-8.616,0c-2.381-2.38-2.381-6.238,0-8.618c17.224-17.225,45.251-17.226,62.476,0
					C274.421,112.381,275.016,113.941,275.016,115.5z"/>
			</g>
			<g>
				<path fill="#9AC556" stroke="#FFFFFF" stroke-width="2" stroke-miterlimit="10" d="M257.608,131.24
					c0,4.172-1.625,8.092-4.573,11.042c-6.089,6.088-15.994,6.088-22.083,0c-2.949-2.95-4.573-6.87-4.573-11.042
					c0-4.171,1.624-8.091,4.573-11.041c6.089-6.088,15.994-6.088,22.083,0C255.983,123.148,257.608,127.068,257.608,131.24z
					 M238.565,131.24c0,0.915,0.357,1.776,1.005,2.424c1.336,1.337,3.511,1.337,4.847,0c0.646-0.647,1.004-1.507,1.004-2.424
					c0-0.915-0.357-1.776-1.004-2.423c-1.336-1.336-3.511-1.336-4.847,0C238.922,129.464,238.565,130.325,238.565,131.24z"/>
			</g>
		</g>
	</g>
</g>
<g id="Layer_6" display="none">
	<g display="inline">
		<path fill="#3B313F" d="M110.294,35.009c-1.716-0.599-2.188-1.718-1.032-2.501l45.89-31.425c1.683-1.143,4.529-1.315,6.323-0.384
			l59.837,21.489c1.244,0.646,0.89,1.82-0.771,2.621l-40.651,22.923c-1.21,0.585-3.204,0.699-4.469,0.259L110.294,35.009z"/>
		<path fill="#FBCC9A" d="M133.88,198.751c0.001,0.99,0.036,1.796,0.111,2.311c0.292,1.971,1.047,2.652,2.158,3.706
			c1.074,1.018,1.168,2.091,1.141,3.467l-0.005,8.311c-0.02,2.224-3.277,2.639-3.812,0.637c-0.158-0.592-0.223-6.493-0.829-6.459
			c-0.463,0.028-1.275,0.169-1.515,0.89c-1.64,4.865,2.073,11.464,1.526,13.026c-1.591,4.524-5.917,0.577-8.69-5.638
			c-2.15-4.817-2.503-11.457-2.58-14.781c-0.029-0.019,0.09-2.053,0.321-5.427C125.753,198.601,129.796,198.57,133.88,198.751z"/>
		<path fill="#FBCC9A" d="M200.509,198.751c-0.002,0.99-0.036,1.796-0.111,2.311c-0.293,1.971-1.048,2.652-2.16,3.706
			c-1.072,1.018-1.168,2.091-1.141,3.467l0.005,8.311c0.021,2.224,3.278,2.639,3.812,0.637c0.159-0.592,0.225-6.493,0.829-6.459
			c0.465,0.028,1.276,0.169,1.515,0.89c1.642,4.865-2.072,11.464-1.525,13.026c1.591,4.524,5.917,0.577,8.691-5.638
			c2.149-4.817,2.502-11.457,2.578-14.781c0.031-0.019-0.09-2.053-0.319-5.427C208.634,198.601,204.591,198.57,200.509,198.751z"/>
		<path fill="#FBCC9A" d="M187.058,78.515c-1.101,6.266,2.612,11.484,8.3,12.608c5.689,1.125,11.189-2.271,12.289-8.537
			c1.102-6.266-2.61-12.257-8.3-13.38C193.66,68.079,188.16,72.25,187.058,78.515z"/>
		<path fill="#FBCC9A" d="M147.375,78.515c1.104,6.266-2.61,11.484-8.298,12.608c-5.688,1.125-11.191-2.271-12.291-8.537
			c-1.102-6.266,2.614-12.257,8.3-13.38C140.773,68.079,146.275,72.25,147.375,78.515z"/>
		<path fill="#FBCC9A" d="M195.596,36.304c-5.553-7.541-14.209-12.496-23.406-12.861c0,0-0.181-0.006-0.474-0.019l0.008-0.36
			c0,0-2.229,0.087-4.53,0.18c-2.301-0.092-4.53-0.18-4.53-0.18l0.011,0.36c-0.294,0.012-0.476,0.019-0.478,0.019
			c-9.192,0.365-17.852,5.32-23.406,12.861c-5.554,7.552-6.292,17.063-5.856,26.17c0.332,6.882,1.549,17.99,1.894,24.873
			c5.575,20.862,19.449,24.425,32.366,24.425c12.918,0,27.254-3.563,32.367-24.425c0.343-6.882,1.561-17.991,1.894-24.873
			C201.893,53.367,201.154,43.856,195.596,36.304z"/>
		<ellipse fill="#381F11" cx="149.712" cy="75.092" rx="3.881" ry="4.604"/>
		<ellipse fill="#381F11" cx="185.019" cy="75.092" rx="3.881" ry="4.604"/>
		<path fill="#6B472D" d="M144.287,65.777c-0.319,0-0.639-0.118-0.89-0.354c-0.519-0.492-0.539-1.311-0.048-1.83
			c2.218-2.337,8.714-3.783,12.525-1.148c0.59,0.407,0.737,1.212,0.33,1.799c-0.406,0.588-1.212,0.737-1.799,0.33
			c-2.783-1.924-7.797-0.657-9.181,0.802C144.973,65.643,144.63,65.777,144.287,65.777z"/>
		<path fill="#6B472D" d="M190.709,65.885c-0.341,0-0.682-0.133-0.938-0.4c-1.981-2.08-6.707-2.024-9.539,0.115
			c-0.568,0.431-1.381,0.318-1.81-0.253c-0.433-0.567-0.319-1.38,0.251-1.811c3.901-2.945,10.085-2.867,12.971,0.165
			c0.493,0.518,0.473,1.335-0.045,1.828C191.349,65.769,191.031,65.885,190.709,65.885z"/>
		<path fill="#CC9A74" d="M165.128,90.815c-0.032,0-0.062,0-0.096-0.004c-0.712-0.05-1.247-0.669-1.196-1.383
			c0.166-2.329,0.428-11.48,0.428-14.279c0-0.714,0.579-1.294,1.292-1.294c0.716,0,1.295,0.58,1.295,1.294
			c0,2.903-0.259,12.039-0.436,14.467C166.368,90.296,165.801,90.815,165.128,90.815z"/>
		<path fill="#89644A" d="M135.753,70.331c0.255-5.044-1.56-17.751,5.1-20.603c2.557-1.094,5.351-1.155,7.932-0.9
			c9.319,0.913,18.005,5.472,34.282,2.838c9.058-1.466,11.414-3.032,13.851-4.957c1.008-0.796,1.248,13.946,1.293,18.638
			c0.021,2.172-0.004,4.24-0.031,6.411c-0.018,1.274-0.014,2.549-0.037,3.82c-0.011,0.519-0.121,1.83,1.58,1.827
			c1.25-0.001,1.41-3.312,1.456-3.914c0.729-9.532,1.088-14.683,0.663-23.579c-0.204-4.299-0.124-4.22-0.477-8.042
			c1.863-2.249,4.917-6.109,4.922-9.025c-1.136,0.658-4.153-0.039-4.153-0.039c1.981-1.894,3.609-4.92,3.106-8.474
			c-2.154,1.535-4.459,2.264-7.363,2.069c0.763-0.951,1.412-2.247,0.007-4.007c-1.294,1.314-3.661,2.118-7.003,2.542
			c-7.284,0.927-27.887-13.925-48.586,1.405c-7.25,5.369-9.945,15.173-9.956,24.587c-0.013,12.227-0.011,8.681-0.022,20.769
			c-0.001,1.084,0.076,4.885,1.328,5.734c1.212,0.821,2.135-0.401,2.112-1.575C135.722,74.066,135.641,72.514,135.753,70.331z"/>
		<g>
			<path fill="#FFFFFF" d="M156.564,95.549c4.576,12.82,21.284,8.225,22.206-0.695L156.564,95.549z"/>
			<path fill="#BA8663" d="M167.308,104.548L167.308,104.548c-5.514,0-9.803-3.147-11.761-8.637
				c-0.114-0.323-0.069-0.686,0.125-0.968c0.194-0.285,0.514-0.46,0.857-0.471l22.207-0.696c0.302-0.021,0.608,0.115,0.822,0.343
				c0.212,0.228,0.316,0.536,0.283,0.845C179.297,100.25,173.673,104.548,167.308,104.548z M158.161,96.579
				c1.814,3.715,5.082,5.814,9.147,5.814l0,0c4.681,0,8.999-2.833,10.132-6.42L158.161,96.579z"/>
		</g>
		<rect x="158.429" y="107.499" fill="#FBCC9A" width="17.527" height="21.46"/>
		<path fill="#605F6D" d="M185.687,293.242l4.38-101.092l-45.751-4.622l4.384,105.714c0,0,6.879,1.963,13.565,7.907
			c0.428-0.553,0.457-1.517,0.457-2.74l-1.146-90.333h11.236l-1.146,90.337c0,1.359,0.193,2.335,0.658,2.862
			C180.637,294.439,185.687,293.242,185.687,293.242z"/>
		<path fill="#ABD1ED" d="M194.183,154.447c0.438-5.965,0.94-11.933,1.139-17.913c0.103-3.068-0.049-6.118,0.224-9.139
			c-3.259-1.692-7.533-3.203-13.194-5.107c-0.812-0.271-2.459-1.002-2.459-1.002l-3.794-3.577l-8.764,5.434
			c0,0-0.154-0.095-0.417-0.252c-0.048,0.255-0.096,0.547-0.144,0.839c-0.002-0.285-0.008-0.569-0.011-0.854l-8.334-5.166
			l-3.794,3.577c0,0-1.646,0.732-2.458,1.002c-4.786,1.61-8.575,2.938-11.605,4.332c0.32,10.01-0.501,20.116-0.813,30.095
			c-0.065,2.076-0.136,4.152-0.2,6.228c0.995-5.423,1.977-10.066,2.334-12.021l1.956,43.107l46.828,4.623l1.954-47.73
			c0.24,1.304,0.756,3.806,1.37,6.936C194.051,156.721,194.098,155.585,194.183,154.447z"/>
		<path fill="#83ABC9" d="M158.102,132.488l-3.737-10.323c-0.127-0.35,0.057-0.743,0.408-0.869c0.35-0.125,0.743,0.054,0.87,0.407
			l3.074,8.499l8.021-6.72c0.287-0.238,0.716-0.202,0.955,0.087c0.243,0.287,0.204,0.714-0.082,0.955L158.102,132.488z"/>
		<path fill="#83ABC9" d="M176.241,132.481l-9.503-7.958c-0.288-0.24-0.326-0.668-0.085-0.955c0.242-0.289,0.67-0.325,0.958-0.087
			l8.023,6.723l3.114-8.396c0.129-0.353,0.521-0.532,0.871-0.403c0.352,0.131,0.531,0.521,0.401,0.875L176.241,132.481z"/>
		<path fill="#83ABC9" d="M167.135,198.374c-0.374,0-0.678-0.302-0.678-0.676v-13.063c0-3.439,0.149-9.813,0.293-15.979
			c0.145-6.171,0.296-12.552,0.296-15.997c0-6.62-0.151-10.478-0.296-14.212c-0.144-3.741-0.293-7.612-0.293-14.251
			c0-0.375,0.304-0.68,0.678-0.68c0.376,0,0.68,0.305,0.68,0.68c0,6.614,0.148,10.471,0.295,14.201
			c0.144,3.744,0.294,7.617,0.294,14.263c0,3.46-0.15,9.853-0.294,16.031c-0.146,6.152-0.295,12.521-0.295,15.944v13.063
			C167.815,198.072,167.511,198.374,167.135,198.374z"/>
		<path fill="#3B313F" d="M135.369,300.089c-1.202,0.784-1.631,1.126-1.01,2.33c0.359,0.691,1.557,0.603,2.771,0.603h24.436
			c1.899,0,1.063-2.376,1.063-6.567c-11.818,0-11.335-4.231-14.329-4.231C146.376,294.441,138.236,298.23,135.369,300.089z"/>
		<path fill="#EFEAE4" d="M141.299,300.687c0,0-0.888-2.579-2.096-2.861c-1.21-0.282-6.287,2.783-6.125,3.711
			c0.161,0.922-0.525,1.667,2.719,1.676c3.243,0.01,5.501,0,5.501,0S141.783,302.562,141.299,300.687z"/>
		<path fill="#EFEAE4" d="M163.221,302.562c0,0.475,0.068,0.866-0.41,0.866H133.94c-0.479,0-0.864-0.392-0.864-0.866l0,0
			c0-0.48,0.386-0.869,0.864-0.869h28.871C163.29,301.693,163.221,302.082,163.221,302.562L163.221,302.562z"/>
		<path fill="#EFEAE4" d="M145.045,298.983c-0.284,0-0.561-0.161-0.689-0.438c-0.333-0.709-1.205-1.514-1.625-1.9l-0.232-0.216
			c-0.301-0.294-0.305-0.776-0.012-1.08c0.297-0.301,0.779-0.302,1.078-0.009l0.198,0.185c0.528,0.486,1.512,1.394,1.972,2.375
			c0.179,0.379,0.015,0.833-0.365,1.012C145.264,298.961,145.155,298.983,145.045,298.983z"/>
		<path fill="#EFEAE4" d="M148.069,296.974c-0.295,0-0.578-0.174-0.7-0.462c-0.284-0.666-1.272-1.722-1.706-1.983
			c-0.361-0.216-0.479-0.682-0.264-1.044c0.217-0.359,0.685-0.48,1.046-0.262c0.716,0.426,1.91,1.723,2.324,2.69
			c0.166,0.388-0.014,0.835-0.401,1C148.268,296.955,148.169,296.974,148.069,296.974z"/>
		<path fill="#3B313F" d="M198.887,300.089c1.204,0.784,1.633,1.126,1.01,2.33c-0.357,0.691-1.556,0.603-2.77,0.603h-24.437
			c-1.898,0-1.063-2.376-1.063-6.567c11.819,0,11.335-4.231,14.329-4.231C187.88,294.441,196.019,298.23,198.887,300.089z"/>
		<path fill="#EFEAE4" d="M192.958,300.687c0,0,0.887-2.579,2.095-2.861c1.209-0.282,6.287,2.783,6.126,3.711
			c-0.161,0.922,0.525,1.667-2.719,1.676c-3.244,0.01-5.502,0-5.502,0S192.474,302.562,192.958,300.687z"/>
		<path fill="#EFEAE4" d="M171.035,302.562c0,0.475-0.066,0.866,0.41,0.866h28.871c0.479,0,0.867-0.392,0.867-0.866l0,0
			c0-0.48-0.389-0.869-0.867-0.869h-28.871C170.968,301.693,171.035,302.082,171.035,302.562L171.035,302.562z"/>
		<path fill="#EFEAE4" d="M189.207,298.983c-0.105,0-0.217-0.021-0.322-0.072c-0.379-0.179-0.545-0.634-0.364-1.012
			c0.464-0.984,1.449-1.889,1.978-2.379l0.195-0.181c0.302-0.293,0.784-0.292,1.076,0.009c0.295,0.304,0.288,0.786-0.012,1.08
			l-0.229,0.212c-0.419,0.388-1.295,1.195-1.63,1.904C189.769,298.822,189.495,298.983,189.207,298.983z"/>
		<path fill="#EFEAE4" d="M186.186,296.974c-0.1,0-0.202-0.02-0.298-0.061c-0.389-0.165-0.568-0.612-0.401-1
			c0.414-0.968,1.609-2.264,2.322-2.69c0.362-0.216,0.831-0.098,1.046,0.262c0.217,0.362,0.098,0.828-0.262,1.044
			c-0.434,0.262-1.422,1.317-1.706,1.984C186.762,296.803,186.482,296.974,186.186,296.974z"/>
		<path fill="#3B313F" d="M203.648,136.994c-2.563-7.75-9.429-10.764-22.662-15.326c0.404,0.14-5.833,18.593-13.73,29.881
			c-0.101,0.05-0.202,0.15-0.307,0.275c-0.103-0.125-0.204-0.225-0.304-0.275c-7.898-11.288-14.136-29.741-13.731-29.881
			c-13.233,4.562-20.1,7.576-22.663,15.326c-2.098,6.344-10.492,63.423-10.696,68.302c-0.013,0.241,1.695,2.114,8.196,2.114
			c3.412,0,6.774-0.158,10.941-1.376c0.127-0.034-1.131,62.99-1.131,62.99s3.749,2.795,28.666,2.897c0.014,0,0.027,0.005,0.04,0.005
			c0.234,0,0.452-0.003,0.682-0.003c0.231,0,0.449,0.003,0.684,0.003c0.014,0,0.026-0.005,0.04-0.005
			c24.917-0.103,28.668-2.897,28.668-2.897s-1.26-63.024-1.133-62.99c4.166,1.218,7.529,1.376,10.943,1.376
			c6.499,0,8.206-1.873,8.194-2.114C214.14,200.417,205.746,143.338,203.648,136.994z"/>
		<path fill="#4C424F" d="M196.194,23.553c-7.294-4.188-18.521-5.902-31.337-5.285c-21.835,1.054-29.081,8.071-29.023,9.292
			l-3.02,14.731c0.059,1.221-0.279,1.624,1.673,1.529c0,0,5.747-3.364,19.106-4.974C163.499,37.362,186.864,36.141,196.194,23.553z"
			/>
		<path fill="#3B313F" d="M214.162,50.415c0,0.638-0.517,1.156-1.155,1.156l0,0c-0.637,0-1.156-0.518-1.156-1.156V26.686
			c0-0.64,0.52-1.157,1.156-1.157l0,0c0.639,0,1.155,0.517,1.155,1.157V50.415z"/>
		<path fill="#3B313F" d="M216.763,56.928c0.234,2.013-1.07,4.048-3.002,4.273l-1.353,0.155c-2.052,0.24-3.467-1.618-3.14-3.826
			l1.116-7.522c0.156-1.058,1.267-1.84,2.469-1.84h0.803c1.164,0,2.176,0.748,2.29,1.752L216.763,56.928z"/>
	</g>
	<g display="inline">
		<path fill="#3B313F" d="M335.49,31.977c1.686-0.68,2.101-1.821,0.909-2.549L283.633-2.765c-1.737-1.06-4.59-1.095-6.336-0.078
			l-53.315,31.064c-1.213,0.706-0.8,1.86,0.894,2.58L278,53.354c1.236,0.525,3.232,0.545,4.473,0.043L335.49,31.977z"/>
		<path fill="#301B0F" d="M318.986,138.137c0,2.938-12.186,2.584-32.314,2.584h-16.637c-20.131,0-32.313,0.354-32.313-2.584
			l1.054-75.867c0-25.197,15.534-40.699,39.576-40.699l0,0c26.031,0,39.581,16.263,39.581,40.699L318.986,138.137z"/>
		<path fill="#E0AA79" d="M305.076,193.332c0.197-0.061-2.251-54.007-3.585-60.657c-0.658-3.285-2.039-3.741-3.022-5.555
			c-4.462,1.161-4.633,5.487-5.259,11.508c0.068,0.604,0.065,1.305-0.122,2.098c1.3,11.818,1.926,25.53,2.41,37.034
			c0.123,2.905,0.741,17.046-0.569,17.698c-1.264,0.631-1.685,2.502-1.79,3.619l-0.808,6.715c-0.196,1.802,2.216,2.495,2.992,0.974
			c0.23-0.454,0.879-5.213,1.529-5.073c0.499,0.105,0.282,0.131,0.476,0.755c1.306,4.229-3.371,8.892-2.924,10.255
			c1.285,3.943,4.487,1.344,8.101-3.178C305.31,206.019,305.768,199.385,305.076,193.332z"/>
		<path fill="#E0AA79" d="M293.078,137.131c0,0,0.564,0.72,0.854,1.938c-0.104-6.052,0.161-12.205,4.45-13.897
			c-2.119-2.994-7.338-3.087-15.4-6.716c-1.883-0.682-2.829-1.455-4.1-1.056c-1.272-0.399-4.103-1.129-5.985-0.447
			c-2.44,1.098-3.85,4.135-5.521,4.955c2.838,9.314,2.085,17.197-0.781,25.891c1.484,3.918,2.493,9.951,1.796,16.685
			c-0.911,8.81-10.954,14.287-11.171,31.909c-0.204,16.29-3.735,78.631-5.954,90.915c-0.478,2.649-2.953,8.67-4.139,9.724
			c-0.74,0.658,3.557,1.843,3.557,1.843s10.826-1.743,11.27-5.179l12.363-98.367l4.566-0.303l3.551,0.303l-0.074,27.795
			l-0.18,70.236c0,3.466,0.93,1.867,0.93,1.867s12.235,5.468,16.669,7.454c2.559,1.142,1.78-1.098,1.78-1.098
			s-4.478,0.218-4.628-4.457c-0.004-0.135-0.135-2.132-0.783-2.877c-1.04-1.198-2.416-3.165-2.552-5.858
			c-0.427-8.453,2.548-40.257,4.443-64.938c0.017,0,0.034,0,0.051,0c0.869-11.633,1.506-21.745,1.439-27.061
			c-0.22-17.622-9.243-23.1-10.157-31.909c-0.911-8.811,1.097-16.43,3.265-19.67c0.794-1.181,1.184-2.26,1.352-3.222
			c-0.006-0.27-0.012-0.542-0.02-0.812C293.676,139.539,293.378,138.319,293.078,137.131z"/>
		<path fill="#E0AA79" d="M293.987,141.591c0.025-0.141,0.06-0.288,0.075-0.424c-0.031-0.129-0.063-0.258-0.095-0.388
			C293.975,141.049,293.981,141.321,293.987,141.591z"/>
		<path fill="#E0AA79" d="M306.074,38.442c-5.936-8.415-12.027-8.675-21.854-9.083h-10.68c-9.826,0.408-15.919,0.668-21.852,9.083
			c-5.938,8.424-3.69,10.605-3.223,20.766c0.354,7.676-4.233,2.291-1.059,23.641c3.175,21.35,21.716,28.197,31.471,28.197
			c9.758,0,26.909-5.724,31.477-28.197c4.567-22.472-1.417-15.965-1.059-23.641C309.761,49.048,312.011,46.866,306.074,38.442z"/>
		<path fill="#FBCC9A" d="M263.698,141.167c0.324-1.374,0.65-2.724,0.987-4.036C264.685,137.131,263.422,138.687,263.698,141.167z"
			/>
		<path fill="#FBCC9A" d="M293.078,137.131c0.333,1.313,0.662,2.662,0.984,4.036C294.339,138.687,293.078,137.131,293.078,137.131z"
			/>
		<rect x="272.899" y="108.644" fill="#E0AA79" width="11.961" height="18.475"/>
		<path fill="#B27D56" d="M276.762,90.706c-0.036,0-0.073-0.001-0.109-0.004c-0.67-0.061-1.163-0.651-1.103-1.319
			c0.164-1.847,0.423-9.088,0.423-11.301c0-0.672,0.544-1.218,1.216-1.218c0.67,0,1.215,0.545,1.215,1.218
			c0,2.103-0.244,9.45-0.432,11.519C277.915,90.23,277.384,90.706,276.762,90.706z"/>
		<ellipse fill="#381F11" cx="261.393" cy="77.251" rx="4.318" ry="5.124"/>
		<path fill="#381F11" d="M266.838,69.161c-0.362,0-0.727-0.149-0.985-0.443c-1.22-1.378-2.871-1.691-4.039-1.712
			c-1.844-0.034-3.761,0.67-4.781,1.745c-0.502,0.527-1.336,0.55-1.861,0.049c-0.528-0.5-0.55-1.334-0.05-1.861
			c1.545-1.628,4.141-2.603,6.738-2.565c2.398,0.04,4.517,0.964,5.964,2.598c0.483,0.544,0.434,1.376-0.11,1.858
			C267.462,69.053,267.15,69.161,266.838,69.161z"/>
		<path fill="#381F11" d="M291.994,69.016c-0.285,0-0.572-0.092-0.813-0.282c-0.572-0.45-0.673-1.276-0.224-1.848
			c1.112-1.412,3.203-2.357,5.467-2.465c2.399-0.118,4.578,0.728,6.145,2.37c0.5,0.526,0.481,1.359-0.044,1.862
			c-0.528,0.5-1.36,0.481-1.862-0.047c-1.391-1.458-3.189-1.606-4.114-1.554c-1.692,0.081-3.011,0.813-3.52,1.458
			C292.771,68.843,292.383,69.016,291.994,69.016z"/>
		<path fill="#381F11" d="M300.631,77.251c0,2.831-1.938,5.124-4.318,5.124c-2.385,0-4.319-2.293-4.319-5.124
			s1.935-5.127,4.319-5.127C298.694,72.125,300.631,74.42,300.631,77.251z"/>
		<path fill="#FBCC9A" d="M263.698,141.167c0.324-1.374,0.65-2.724,0.987-4.036C264.685,137.131,263.422,138.687,263.698,141.167z"
			/>
		<path fill="#FBCC9A" d="M293.078,137.131c0.333,1.313,0.662,2.662,0.984,4.036C294.339,138.687,293.078,137.131,293.078,137.131z"
			/>
		<path fill="#3B313F" d="M287.847,118.036"/>
		<path fill="#3B313F" d="M297.879,180.284c-2.621,2.556-6.723-1.178-7.534-1.994c-12.697-8.989-7.964-13.253-22.45-2.308
			c-2.018,0.676-5.279,7.507-8.164,4.52c-1.433,3.803-2.003,7.06-2.499,12.377c-0.576,6.16-1.436,14.965-1.43,15.053
			c0.016,0.231,0.212,0.351,0.436,0.414c9.14,2.57,36.476,2.457,43.419,0.291c0,0,0.917-0.46,0.941-0.688
			c0.007-0.078-0.175-7.905-0.175-14.036C300.423,188.656,299.338,184.183,297.879,180.284z"/>
		<path fill="#694C75" d="M290.489,164.385c-1.862-8.433,1.037-11.913,3.153-15.072c0.436-0.65,4.354-5.011,1.512-12.685
			c2.309-1.116,3.593-2.383,6.233-3.006c-0.176-0.669-0.329-1.215-0.453-1.599c-2.235-6.78-6.914-9.28-9.104-11.845
			c0.005-0.03-4.504-2.318-4.538-2.248c-1.065-0.74-2.433-1.937-2.433-1.937c-1.338,7.271-6.253,13.767-6.253,13.767
			s-5.062-7.52-5.708-13.767c0,0-1.702,1.634-2.586,2.114c-2.821,1.572-5.493,2.231-5.481,2.355
			c-0.008-0.061-5.97,1.147-10.084,6.777c-0.202,0.275-0.456,0.658-0.758,1.123c2.314,1.737,6.655,7.251,7.827,10.129
			c0.003-0.003,0.006-0.005,0.011-0.008c-1.632,6.523,1.695,10.234,2.093,10.829c2.12,3.159,5.018,6.639,3.151,15.072
			c-0.354,1.619-1.544,3.923-2.923,6.591c-1.413,2.733-3.074,5.961-4.418,9.525c2.885,2.987,35.217,2.987,38.102,0
			c-1.343-3.564-3.006-6.792-4.418-9.525C292.037,168.308,290.848,166.004,290.489,164.385z"/>
		<path fill="#52396D" d="M249.048,293.448c-1.805,3.622-5.086,6.121-5.086,6.121c-1.981,2.264-2.107,3.477-0.217,3.7
			c0,0,3.919,0.477,6.515-0.224c5.703-1.526,8.726-5.677,9.327-5.991l0.412,4.053c1.504,0.882,2.354-0.157,2.354-0.157
			s1.776-11.928,0.2-13.136c-0.268-0.209,0,0,0,0c0.134,0.105-4.314,7.756-10.937,9.163c-1.125,0.24-2.53,0.35-3.172-0.938
			C248.089,295.325,248.729,294.093,249.048,293.448z"/>
		<path fill="#52396D" d="M295.73,293.448c1.804,3.622,5.084,6.121,5.084,6.121c1.983,2.264,2.11,3.477,0.22,3.7
			c0,0-3.92,0.477-6.517-0.224c-5.703-1.526-8.728-5.677-9.328-5.991l-0.411,4.053c-1.503,0.882-2.354-0.157-2.354-0.157
			s-1.777-11.928-0.202-13.136c0.269-0.209,0,0,0,0c-0.135,0.105,4.318,7.756,10.938,9.163c1.128,0.24,2.53,0.35,3.173-0.938
			C296.686,295.325,296.049,294.093,295.73,293.448z"/>
		<ellipse fill="#DD947A" cx="258.558" cy="88.437" rx="6.099" ry="4.214"/>
		<ellipse fill="#DD947A" cx="299.146" cy="88.437" rx="6.098" ry="4.214"/>
		<path fill="#301B0F" d="M242.603,69.243c0,0,30.775-6.839,58.14-26.259c0,0,9.369,16.103,10.551,38.839
			c0,0,10.807-43.175-15.707-52.463C269.074,20.071,236.524,34.397,242.603,69.243z"/>
		<g>
			<path fill="#FFFFFF" d="M269.399,97.003c3.473,8.474,17.342,5.746,18.306-0.081L269.399,97.003z"/>
			<path fill="#A36E46" d="M278.334,103.391h-0.002c-4.64-0.001-8.33-2.246-9.872-6.004c-0.126-0.312-0.09-0.667,0.098-0.947
				c0.186-0.279,0.5-0.449,0.838-0.45l18.304-0.081c0.002,0,0.002,0,0.005,0c0.296,0,0.579,0.131,0.771,0.357
				c0.192,0.226,0.277,0.528,0.227,0.823C288.05,101.033,282.92,103.391,278.334,103.391z M271.082,98.009
				c2.041,2.996,5.65,3.354,7.251,3.354h0.002c3.45,0,6.697-1.477,7.906-3.421L271.082,98.009z"/>
		</g>
		<path fill="#E0AA79" d="M263.531,173.846c-1.15-0.351-3.759-0.966-3.814-0.964c-0.679,0.032-1.656-0.688-2.715-1.749
			c-2.303,0.22-4.155,1.095-4.797,2.376c-0.911,1.519-1.542,3.22-1.854,4.966c1.531,1.548,3.458,3.362,5.79,4.202
			c2.068,0.743,0.728-0.317,5.764,2.534c1.237,0.699,2.795-0.232,1.979-1.863c-0.331-0.67-2.425-2.076-2.792-2.411
			c2.031,0.479,4.484,3.133,5.812,2.502c3.457-1.636-3.062-5.801-5.622-6.248c0.674,0.117,2.773,0.003,5.382,2.01
			c0.826,0.635,1.784,0.532,2.263,0.079c0.756-0.718,0.434-1.695-0.201-2.466C267.42,175.228,265.441,174.43,263.531,173.846z"/>
		<path fill="#4C424F" d="M241.861,42.727c0,0-1.255,2.213,0.7,2.213c0,0,17.896-5.523,37.367-5.523
			c18.382,0,35.246,5.523,35.246,5.523c0.816,0.352,0.459-1.787,0.459-1.787l-6.149-18.305c0-1.222-7.441-5.111-29.301-5.111
			c-19.417,0-29.303,3.889-29.303,5.111L241.861,42.727z"/>
		<path fill="#3B313F" d="M326.381,58.199c0,0.639,0.519,1.157,1.157,1.157l0,0c0.638,0,1.154-0.518,1.154-1.157V34.469
			c0-0.639-0.517-1.156-1.154-1.156l0,0c-0.639,0-1.157,0.517-1.157,1.156V58.199z"/>
		<path fill="#3B313F" d="M323.781,64.711c-0.233,2.013,1.071,4.048,3.003,4.273l1.353,0.156c2.05,0.24,3.466-1.618,3.138-3.826
			l-1.114-7.521c-0.156-1.058-1.268-1.841-2.47-1.841h-0.803c-1.163,0-2.173,0.747-2.289,1.751L323.781,64.711z"/>
		<path fill="#3B313F" d="M301.266,129.934c-0.301-0.745-0.646-1.461-1.044-2.137c-2.694-4.584-7.142-8.626-12.19-9.687
			c-0.126-0.027-0.346-0.114-0.367,0.013c-1.534,9.139-8.928,19.25-8.928,19.25s-5.883-6.962-8.482-19.269
			c-0.09-0.021-0.183-0.012-0.277,0.006c-12.053,2.305-19.35,10.804-26.345,23.481c-3.274,5.931-4.89,14.475-6.01,22.449
			c-1.695,12.082,2.773,33.724,17.654,34.334c0,0-0.209,0.101-0.373,2.084c-0.192,2.33-0.389,4.657-0.583,6.984
			c-0.471,5.627-2.119,35.825-2.812,45.308c-0.063,0.856-0.202,1.747-0.169,2.608c0.006,0.194,0.923,3.886,27.411,3.886
			c26.122,0,27.042-3.825,27.032-3.931c-0.059-0.719-0.114-1.438-0.173-2.161c-0.752-9.307-1.506-18.612-2.258-27.919
			c-0.426-5.252-0.98-10.154-1.305-15.447c-0.165-2.713-0.396-5.427-0.286-8.15c3.406,0.029,6.82-0.882,8.544-2.342
			c0.192-4.526-3.052-41.362-4.111-50.177C305.361,142.199,303.422,135.293,301.266,129.934z M254.497,158.18
			c0.735-6.447,5.033-14.835,5.361-15.14c-0.173,2.321,0.844,13.88-0.527,27.837C253.57,167.277,254.497,158.18,254.497,158.18z"/>
		<path fill="#EFEAE4" d="M274.229,159.784c1.547,0.394,2.486,1.963,2.093,3.511l-6.739,17.788l-2.638,19.248
			c-0.392,1.546-1.963,2.483-3.512,2.092l-3.552-0.9c-1.548-0.393-2.484-1.963-2.092-3.508l6.841-18.185l2.536-18.853
			c0.391-1.547,1.965-2.484,3.511-2.092L274.229,159.784z"/>
		<path fill="#E0AA79" d="M270.235,178.438c1.132,0.383,2.729,1.212,2.241,3.354c-0.341,1.485-1.844,1.686-2.764,1.478
			c0.556,0.386,1.075,0.985,1.024,1.603c-0.135,1.582-1.241,1.929-3.013,1.992c-3.112,0.115-3.284,0.344-5.501-0.342
			c-3.471-1.077-3.616-5.468-3.04-8.294c1.091-5.33,5.717-4.657,7.441-4.609c2.153,0.058,5.989,0.995,5.974,3.283
			C272.587,178.531,271.609,178.903,270.235,178.438z"/>
	</g>
</g>
<g id="Layer_7">
	<g>
		<path fill="#15150E" d="M156.844,171.664c0,4.686-3.798,8.483-8.483,8.483h-31.129H81.91c-4.685,0-8.483-3.798-8.483-8.483v-35.7
			c0-4.685,3.798-8.483,8.483-8.483l33.078-5.542l33.373,5.542c4.686,0,8.483,3.798,8.483,8.483V171.664z"/>
		<path fill="#15150E" d="M268.775,170.504c0,4.685-3.798,8.482-8.483,8.482h-31.128h-35.322c-4.686,0-8.483-3.798-8.483-8.482
			v-35.7c0-4.686,3.798-8.483,8.483-8.483l33.077-5.542l33.373,5.542c4.686,0,8.483,3.798,8.483,8.483V170.504z"/>
		<g>
			<g>
				<path fill="none" d="M105.249,142.411c-0.043,0.083-0.086,0.168-0.145,0.251C105.157,142.583,105.206,142.5,105.249,142.411z"/>
				<path fill="none" d="M126.132,143.867c-0.296-0.108-0.548-0.236-0.771-0.377c-0.022-0.017-0.04-0.033-0.062-0.047
					c-0.2-0.133-0.372-0.277-0.515-0.428c-0.041-0.038-0.074-0.082-0.112-0.125c-0.137-0.161-0.253-0.32-0.342-0.482
					c-0.009-0.017-0.022-0.033-0.029-0.052c-0.066-0.123-0.119-0.237-0.162-0.349c0.315,0.97,0.899,1.403,1.762,1.772l0,0
					c0.052,0.018,0.095,0.044,0.142,0.063c0.04,0.014,0.089,0.029,0.128,0.045v-0.002
					C126.158,143.882,126.15,143.872,126.132,143.867z"/>
				<path fill="none" d="M103.77,143.718c-0.105,0.05-0.204,0.108-0.324,0.149c-0.009,0.004-0.017,0.012-0.026,0.015
					c0.026-0.012,0.071-0.029,0.098-0.04C103.605,143.802,103.686,143.759,103.77,143.718z"/>
				<path fill="none" d="M104.801,143.014c-0.139,0.146-0.31,0.288-0.503,0.418c0.319-0.199,0.577-0.436,0.789-0.744
					c-0.052,0.069-0.123,0.139-0.182,0.209C104.872,142.935,104.838,142.977,104.801,143.014z"/>
				<path fill="#FFEFDB" d="M118.94,141.578c-1.363,0.486-2.723,0.725-4,0.699v0.005c-0.006,0-0.015,0-0.022,0
					c-0.024,3.369-0.05,6.652-0.076,10.238c5.161,0.119,10.245-2.709,11.06-8.742c-0.863-0.369-1.447-0.802-1.762-1.772
					c-0.186-0.487-0.197-0.872-0.197-0.872c0.002,0.001,0.003,0.001,0.003,0.001c-0.044-0.265-0.072-0.489-0.084-0.849l0,0
					c-0.004-0.069-0.014-0.136-0.018-0.203c-1.815,1.105-4.416,2.311-7.294,2.385C116.55,142.469,117.51,142.205,118.94,141.578z"/>
				<path fill="#FFEFDB" d="M123.794,138.769c0-0.038,0.001-0.074,0.001-0.11c-0.265,0.232-0.528,0.466-0.798,0.676
					C123.26,139.151,123.528,138.966,123.794,138.769z"/>
				<path fill="#FFEFDB" d="M114.94,142.277c0,0-0.015,0-0.022,0c0,0.003,0,0.005,0,0.005c0.007,0,0.016,0,0.022,0V142.277z"/>
				<path fill="#F5DBC6" d="M114.945,137.393c-0.007,1.678-0.018,3.296-0.027,4.885c0.007,0,0.022,0,0.022,0
					C114.94,140.901,114.943,139.241,114.945,137.393z"/>
				<path fill="#F5DBC6" d="M112.975,101.647c-1.542,0.29-2.27,0.222-3.868-0.372c-0.912-0.337-2.599-0.355-3.904,1.513
					c-1.433,2.056-2.844,2.367-3.771,2.96c-1.193,0.761-2.233,0.545-2.932,4.045c-0.425,2.131-0.399,3.422-1.955,3.422
					c-1,0-1.469,1.305-1.481,2.279c0.005,0.052,0.015,0.101,0.019,0.155c-0.241,0.148-0.471,0.338-0.687,0.604
					c-1.822,2.227-0.327,6.003,2.031,9.201c0.527,0.712,1.028,1.107,1.485,1.296c1.498,3.753,3.516,7.214,6.008,10.035
					c0.608,0.688,1.227,1.281,1.851,1.831c-0.002,0.55-0.024,1.111-0.068,1.681c0.006-0.003,0.013-0.004,0.019-0.01
					c-0.012,0.36-0.042,0.584-0.086,0.852c0.001-0.003,0.004-0.003,0.006-0.004c0,0-0.011,0.574-0.358,1.224
					c-0.008,0.016-0.02,0.032-0.032,0.047c0,0.001,0,0.001-0.002,0.004c-0.043,0.089-0.092,0.172-0.145,0.251
					c-0.006,0.01-0.012,0.018-0.018,0.026c-0.212,0.309-0.47,0.545-0.789,0.744c-0.006,0.004-0.014,0.013-0.023,0.019
					c-0.019,0.012-0.033,0.025-0.052,0.036c-0.131,0.085-0.292,0.159-0.452,0.232c-0.084,0.041-0.165,0.084-0.252,0.125
					c-0.027,0.011-0.072,0.028-0.098,0.04c-0.004,0-0.006,0-0.011,0.003c0.019,0.086,0.037,0.185,0.056,0.282
					c1.368,5.379,6.405,8.239,11.378,8.354c0.025-3.585,0.052-6.869,0.076-10.238c0,0,0-0.002,0-0.005
					c0.01-1.588,2.172-2.673,2.179-4.35c0.014-2.568-0.547-6.126-0.547-9.151c0.026-7.973-0.22-17.852-0.194-28.108
					C115.765,100.863,113.788,101.442,112.975,101.647z"/>
				<path fill="#FFEFDB" d="M134.539,116.253c-0.053-0.06-0.102-0.101-0.151-0.152c0.002-0.02,0.006-0.038,0.008-0.053
					c-0.253-4.642-1.696-3.716-2.562-7.07c-0.857-3.326-2.357-3.428-3.95-3.666c-1.375-0.202-1.635-0.527-2.422-1.567
					c-1.526-2.015-3.071-1.165-4.709-1.066c-1.419,0.09-1.812-0.95-2.925-1.684c-0.863-0.563-1.675-0.365-2.781,0.006
					c-0.025,10.256-0.054,20.11-0.081,28.082c0,3.026-0.006,5.741-0.02,8.31c-0.002,1.848-0.005,3.509-0.005,4.885
					c1.277,0.025,2.637-0.213,4-0.699c1.135-0.494,2.566-1.227,4.057-2.244c0.271-0.209,0.534-0.443,0.798-0.676
					c0.645-0.566,1.271-1.173,1.855-1.873c2.485-2.971,4.52-6.564,6.041-10.43c0.255-0.224,0.524-0.512,0.813-0.901
					C134.864,122.257,136.358,118.48,134.539,116.253z"/>
				<path fill="#FFFFFF" d="M94.879,146.24L94.879,146.24c-0.675,0.156-1.359,0.316-2.053,0.48
					C93.521,146.557,94.204,146.396,94.879,146.24z"/>
				<path fill="#FFFFFF" d="M124.854,153.996c-0.003,0.004-0.003,0.006-0.006,0.008c0.269-1.853,0.844-7.755,1.324-10.116
					c-0.04-0.016-0.088-0.031-0.128-0.045c-0.046-0.02-0.09-0.046-0.142-0.063c-0.815,6.032-5.898,8.86-11.06,8.742
					c-4.973-0.115-10.01-2.975-11.378-8.354c0.379,2.024,0.833,6.01,1.171,8.422c0.073,0.419,0.139,0.847,0.203,1.282
					c0.007,0.045,0.014,0.094,0.023,0.133c-0.001-0.002-0.003-0.004-0.006-0.008c0.126,0.864,0.231,1.756,0.327,2.655h19.344
					C124.624,155.751,124.729,154.86,124.854,153.996z"/>
				<path fill="#287D8D" d="M104.854,153.996c-1.381-2.417-2.386-2.928-3.768-1.548c-1.308,1.306-2.703,2.801-3.979,4.204h8.073
					C105.085,155.751,104.98,154.86,104.854,153.996z"/>
				<path fill="#287D8D" d="M94.879,146.24c-0.675,0.156-1.359,0.316-2.053,0.48c-3.338,0.769-8.242,3.589-8.782,9.931h9.472
					C94.01,153.579,94.592,149.594,94.879,146.24z"/>
				<path fill="#287D8D" d="M104.635,152.589c0.074,0.513,0.142,0.946,0.203,1.282C104.774,153.436,104.708,153.008,104.635,152.589
					z"/>
				<path fill="#287D8D" d="M128.495,152.447c-1.384-1.382-2.258-0.869-3.641,1.548c-0.125,0.864-0.23,1.756-0.328,2.655h7.949
					C131.199,155.249,129.805,153.753,128.495,152.447z"/>
				<path fill="#287D8D" d="M136.739,146.72c-0.703-0.181-1.379-0.348-2.041-0.512c0.287,3.361,0.87,7.36,1.367,10.443h9.476
					C145.036,149.46,139.82,147.5,136.739,146.72z"/>
				<path fill="#469FB7" d="M104.905,142.896c-0.033,0.038-0.067,0.078-0.104,0.117
					C104.838,142.977,104.872,142.935,104.905,142.896z"/>
				<path fill="#469FB7" d="M104.274,143.45c-0.019,0.012-0.033,0.025-0.052,0.036C104.241,143.476,104.255,143.462,104.274,143.45z
					"/>
				<path fill="#469FB7" d="M105.283,142.359c-0.008,0.016-0.02,0.032-0.032,0.047C105.263,142.391,105.274,142.375,105.283,142.359
					z"/>
				<path fill="#469FB7" d="M101.087,152.447c1.382-1.38,2.387-0.869,3.768,1.548c0.003,0.004,0.005,0.006,0.006,0.008
					c-0.009-0.039-0.016-0.088-0.023-0.133c-0.061-0.336-0.129-0.769-0.203-1.282c-0.338-2.412-0.792-6.398-1.171-8.422
					c-0.019-0.097-0.037-0.195-0.056-0.282c0.005-0.003,0.007-0.003,0.011-0.003c0.009-0.003,0.018-0.011,0.026-0.015
					c-0.012,0.004-0.021,0.015-0.039,0.018c-0.138-0.606-0.063-0.889,0.177-1.278c0.478-0.479,1.595-1.109,2.05-1.468
					c0.044-0.268,0.074-0.492,0.086-0.852c-0.006,0.006-0.012,0.007-0.019,0.01c-5.63,2.839-9.978,2.435-10.813,5.853
					c-0.002,0.033-0.007,0.06-0.009,0.09c-0.287,3.354-0.869,7.338-1.363,10.411h3.592
					C98.384,155.249,99.779,153.753,101.087,152.447z"/>
				<path fill="#287D8D" d="M104.222,143.486c0.019-0.01,0.033-0.024,0.052-0.036c0.009-0.006,0.017-0.014,0.023-0.019
					c0.194-0.13,0.365-0.272,0.503-0.418c0.037-0.04,0.071-0.079,0.104-0.117c0.059-0.07,0.13-0.14,0.182-0.209
					c0.005-0.008,0.011-0.016,0.018-0.026c0.059-0.083,0.102-0.168,0.145-0.251c0.002-0.003,0.002-0.003,0.002-0.004
					c0.012-0.015,0.024-0.031,0.032-0.047c0.347-0.65,0.358-1.224,0.358-1.224c-0.002,0.001-0.005,0.001-0.006,0.004
					c-0.455,0.359-1.572,0.989-2.05,1.468c-0.24,0.389-0.315,0.672-0.177,1.278c0.017-0.003,0.026-0.014,0.039-0.018
					c0.12-0.042,0.218-0.1,0.324-0.149C103.93,143.645,104.091,143.571,104.222,143.486z"/>
				<path fill="#469FB7" d="M124.785,143.015c-0.043-0.041-0.074-0.082-0.112-0.125C124.71,142.933,124.744,142.977,124.785,143.015
					z"/>
				<path fill="#469FB7" d="M124.331,142.408c-0.009-0.015-0.022-0.033-0.029-0.052
					C124.309,142.375,124.322,142.391,124.331,142.408z"/>
				<path fill="#469FB7" d="M125.361,143.49c-0.022-0.017-0.04-0.033-0.062-0.047C125.321,143.457,125.339,143.473,125.361,143.49z"
					/>
				<path fill="#469FB7" d="M134.699,146.208c-0.002-0.017-0.004-0.037-0.004-0.058c-0.836-3.421-5.195-3.014-10.833-5.863
					c0.012,0.36,0.04,0.584,0.084,0.849c0.453,0.362,1.574,0.992,2.054,1.471c0.24,0.389,0.313,0.672,0.175,1.278
					c-0.015-0.003-0.024-0.014-0.042-0.018c0.018,0.004,0.025,0.015,0.04,0.018v0.002c-0.48,2.361-1.055,8.263-1.324,10.116
					c0.003-0.002,0.003-0.004,0.006-0.008c1.383-2.417,2.257-2.931,3.641-1.548c1.31,1.306,2.704,2.801,3.979,4.204h3.591
					C135.569,153.568,134.986,149.569,134.699,146.208z"/>
				<path fill="#287D8D" d="M124.331,142.408c0.089,0.162,0.205,0.321,0.342,0.482c0.038,0.043,0.069,0.084,0.112,0.125
					c0.143,0.15,0.315,0.295,0.515,0.428c0.021,0.014,0.04,0.03,0.062,0.047c0.223,0.141,0.475,0.269,0.771,0.377
					c0.019,0.004,0.027,0.015,0.042,0.018c0.138-0.606,0.064-0.889-0.175-1.278c-0.48-0.479-1.601-1.109-2.054-1.471
					c0,0-0.001,0-0.003-0.001c0,0,0.011,0.385,0.197,0.872c0.042,0.112,0.095,0.227,0.162,0.349
					C124.309,142.375,124.322,142.393,124.331,142.408z"/>
				<path fill="#EFD1B4" d="M118.94,141.578c-1.43,0.627-2.39,0.891-2.39,0.891c2.878-0.074,5.479-1.28,7.294-2.385
					c0.007-0.004,0.014-0.007,0.021-0.015c-0.029-0.438-0.064-0.875-0.066-1.304c-0.003,0-0.003,0-0.004,0.003
					c-0.266,0.197-0.534,0.382-0.797,0.565C121.506,140.351,120.075,141.084,118.94,141.578z"/>
				<path fill="#6E3F13" d="M96.544,113.215c1.556,0,1.53-1.291,1.955-3.422c0.699-3.5,1.738-3.284,2.932-4.045
					c0.927-0.593,2.339-0.904,3.771-2.96c1.305-1.868,2.992-1.85,3.904-1.513c1.599,0.594,2.326,0.662,3.868,0.372
					c0.813-0.205,1.481-0.451,2.071-0.646c1.106-0.371,1.918-0.569,2.781-0.006c1.113,0.734,1.506,1.773,2.925,1.684
					c1.638-0.099,3.183-0.948,4.709,1.066c0.788,1.04,1.047,1.365,2.422,1.567c1.593,0.238,3.092,0.34,3.95,3.666
					c0.866,3.354,2.309,2.428,2.562,7.07c0.001,0.016,0.001,0.032,0.003,0.048c1.047-2.708,1.139-6.425,0.82-8.905
					c-0.433-3.384-0.808-3.88-1.238-5.225c-0.92-2.887-3.818-7.64-3.494-5.589c0.103,1.771-0.179,1.243-0.383,0.529
					c-0.589-2.769-3.005-5.671-2.75-4.4c0.252,1.476,0.064,1.437-0.161,0.838c-1.584-2.735-3.611-4.771-3.611-4.154
					c0,1.845,0.326,2.403-0.651,0.543c-1.428-2.717-2.582-2.882-2.457-2.458c0.299,1.874,0.059,1.317-0.181,0.774
					c-1.087-1.909-1.795-2.545-2.249-2.794c0,1.735-0.667,2.634-0.834,0.921c-0.297-3.052-1.585-4.559-1.908-4.559
					c0.202,1.831-0.906,4.794-1.938,5.825c0.167-0.775,0.095-1.66-0.162-2.604c-0.885,3.287-2.963,4.586-3.954,5.574
					c0-0.347,0.432-1.506,0.027-2.239c-0.758,3.149-5.489,4.598-6.602,5.717c0.017-0.544,0.194-1.358,0.194-1.712
					c-1.412,2.417-4.233,3.554-4.803,6.733c-0.06-0.663,0.286-0.719,0.095-1.78c-1.771,3.693-2.901,5.115-2.901,7.939
					c-0.348-0.62-0.067-1.585-0.179-2.388c-1.264,5.214-0.652,7.544-0.299,9.254c-0.447-0.447-0.212-1.096-0.653-2.059
					c0,3.15,0.933,5.656,0.933,5.656c0-0.015,0.002-0.025,0.002-0.035C95.075,114.52,95.544,113.215,96.544,113.215z"/>
			</g>
		</g>
		<g>
			<path fill="#FFEFDB" d="M232.686,134.813c0.004,0.007,0.006,0.016,0.007,0.021C232.692,134.828,232.69,134.819,232.686,134.813z"
				/>
			<path fill="#FFEFDB" d="M248.904,144.778c-0.856-4.488-4.412-5.792-6.578-6.343C244.492,138.985,248.047,140.29,248.904,144.778z
				"/>
			<path fill="#FFEFDB" d="M236.643,122.746c1.01-1.446,2.554-5.229,2.696-8.963c0-4.949-0.735-6.707-1.469-7.967
				c-0.171,0.388-0.146,1.522,0.223,2.739c-1.657-0.918-7.025-3.61-8.558-9.545c0,0,0.164,6.141-3.676,10.042
				c0.43-0.788,0.798-2.084,0.655-3.817c-0.216,0.509-1.501,2.26-1.799,2.704c-0.016,6.481-0.358,13.386-0.37,18.733
				c-0.018,5.21,0,10.373,0,13.269c0,0,1.279,0.563,1.246,4.939c3.849-0.104,7.645-3.063,8.449-8.691
				c-0.535-0.229-0.933-0.487-1.19-0.972c0,0,0,0.003,0.002,0.003c-1.389,0.899-3.547,1.991-5.946,2.051
				c0,0,2.822-0.761,5.669-2.925c-0.002-0.01-0.004-0.023-0.006-0.037c0.443-0.399,0.875-0.825,1.279-1.308
				c0.617-0.738,1.184-1.543,1.728-2.374c-0.156,0.14-0.313,0.28-0.486,0.42c0.921-0.934,2.911-5.633,3.4-9.7
				C238.024,122.01,237.472,122.539,236.643,122.746z"/>
			<path fill="#EFD1B4" d="M225.664,137.201c0-2.896,0.01-7.27,0.027-12.48c0.012-5.347,0.033-11.58,0.049-18.062
				c-1.914,2.869-5.327,4.48-7.802,5.63c0,0-3.596,1.805-3.596,7.157c0,5.354,1.329,7.844,3.646,9.057
				c-0.847,0.219-1.705-0.133-3.095-1.006c1.594,2.739,4.173,4.804,4.173,10.521c0,1.358-0.029,2.545-0.06,3.61
				c1.724,2.25,4.164,3.316,6.586,3.251C225.625,140.503,225.664,137.201,225.664,137.201z"/>
			<path fill="#70567E" d="M248.904,144.778c-0.856-4.488-4.412-5.792-6.578-6.343c-0.903-0.228-1.759-0.438-2.565-0.635
				c-2.417-0.588-4.363-1.057-5.608-1.564c-0.037-0.015-0.073-0.033-0.11-0.049c-0.805,5.628-4.601,8.588-8.449,8.691
				c-2.422,0.065-4.862-1.001-6.586-3.251c-0.046,1.59-0.096,2.896-0.082,4.09h30.101
				C248.997,145.391,248.958,145.073,248.904,144.778z"/>
			<path fill="#70567E" d="M204.955,140.315c-1.422,1.175-2.604,2.92-2.895,5.402h2.507
				C204.794,143.949,204.935,142.313,204.955,140.315z"/>
			<path fill="#554534" d="M219.006,141.628c0.03-1.065,0.06-2.252,0.06-3.61c0-5.717-2.579-7.781-4.173-10.521
				c1.39,0.873,2.248,1.226,3.095,1.006c-2.316-1.213-3.646-3.703-3.646-9.057c0-5.352,3.596-7.157,3.596-7.157
				c2.475-1.15,5.888-2.762,7.802-5.63c0.298-0.444,0.56-0.916,0.775-1.425c0.143,1.732-0.226,3.029-0.655,3.817
				c3.84-3.9,3.676-10.042,3.676-10.042c1.532,5.935,6.9,8.627,8.558,9.545c-0.369-1.217-0.394-2.351-0.223-2.739
				c0.733,1.26,1.469,3.019,1.469,7.967c-0.143,3.734-1.687,7.517-2.696,8.963c0.829-0.207,1.381-0.736,1.848-1.398
				c-0.489,4.066-2.479,8.766-3.4,9.7c0.174-0.14,0.33-0.28,0.486-0.42c1.76-1.548,2.602-3.029,2.864-4.457
				c0.154,1.875,0.694,2.718,1.469,2.884c-0.406-1.826-0.327-3.32,0.735-5.892c1.063-2.573,2.78-7.886,2.78-12.119
				s-0.502-8.622-3.922-13.361c-3.105-3.974-7.027-5.52-8.415-5.52c-1.591-1.619-5.016-2.271-9.23-1.41
				c-5.466,1.115-10.946,5.272-14.542,12.41c-3.593,7.137-3.453,19.515-2.695,29.462c0.25,3.283,0.353,5.674,0.334,7.691
				c-0.02,1.997-0.16,3.634-0.388,5.402h14.357C218.911,144.524,218.96,143.218,219.006,141.628z"/>
			<path fill="#EFD1B4" d="M226.907,137.27c2.399-0.06,4.558-1.152,5.946-2.051c-0.002,0-0.002-0.002-0.002-0.002
				c-0.062-0.114-0.112-0.241-0.158-0.382c-0.001-0.006-0.003-0.015-0.007-0.021c-0.043-0.141-0.08-0.295-0.11-0.468l0,0
				C229.729,136.509,226.907,137.27,226.907,137.27z"/>
		</g>
		<g>
			<path fill="#4F110E" d="M300.796,134.134c-1.415,0.458-2.38,1.779-2.38,3.269v1.567c0,1.111-0.903,2.012-2.015,2.012h-4.369
				v7.133h6.384c8.366,6.514,25.978,5.589,31.703,0c5.724-5.591,8.586-19.015,0-19.015
				C317.962,129.099,305.804,132.534,300.796,134.134z"/>
			<path fill="#7F1718" d="M34.74,134.134c1.414,0.458,2.382,1.779,2.382,3.263v1.573c0,1.111,0.901,2.012,2.014,2.012h4.369v7.133
				h-6.383c-8.366,6.514-25.982,5.589-31.7,0c-5.728-5.591-8.59-19.015,0-19.015C17.582,129.099,29.734,132.534,34.74,134.134z"/>
			<path fill="#232323" d="M174.202,93.049c-1.176,0-2.127-0.951-2.127-2.125v-4.431h-7.534v4.431c0,1.174-0.95,2.125-2.125,2.125
				h-10.189c-2.451,0-4.61,1.617-5.3,3.97l-0.584,1.996c-0.465,1.582-0.196,3.287,0.728,4.652c0.925,1.365,2.412,2.244,4.053,2.4
				c9.011,0.861,25.362,0.861,34.37,0c1.641-0.157,3.124-1.037,4.049-2.4c0.925-1.363,1.196-3.07,0.734-4.651l-0.585-1.994
				c-0.688-2.355-2.847-3.973-5.3-3.973H174.202z"/>
			<path opacity="0.25" fill="#FFFFFF" d="M287.196,143.755c-5.363-0.576-8.209-1.113-13.946-1.635
				c-39.929-3.596-74.795-5.859-105.484-6.141c-30.685,0.282-65.556,2.545-105.474,6.141c-5.739,0.522-8.602,1.059-13.958,1.635
				l10.293-23.671c9.338-21.271,22.108-33.593,59.729-33.593h98.818c37.62,0,50.39,12.323,59.728,33.593L287.196,143.755z"/>
			<path fill="#4F110E" d="M294.075,145.046l-0.453,0.203l-4.858,2.109l-1.567-3.603l-10.294-23.671
				c-9.338-21.271-22.107-33.593-59.728-33.593h-49.409v-5.794h49.409c40.616,0,54.993,14.185,65.044,37.068L294.075,145.046z"/>
			<path fill="#7F1718" d="M167.765,80.697v5.794h-49.409c-37.621,0-50.392,12.323-59.729,33.593l-10.293,23.671l-1.567,3.603
				l-4.846-2.109l-0.46-0.203l11.863-27.281c10.041-22.884,24.428-37.068,65.033-37.068H167.765z"/>
			<path fill="#3C3C3B" d="M270.189,285.984c0,5.132,4.16,9.293,9.292,9.293h24.609c5.133,0,9.293-4.161,9.293-9.293v-31.99h-43.194
				V285.984z"/>
			<path fill="#7F1718" d="M292.953,162.707c-1.215,3.085-4.17,5.151-7.493,5.221l-11.191,0.249
				c-12.327,0.265-24.156,4.948-33.331,13.198l-0.729,0.64c-9.454,8.508-21.716,13.21-34.438,13.21h-38.005v-59.245
				c30.689,0.282,65.556,2.545,105.484,6.141c9.344,1.701,12.559,6.591,17.771,11.643C293.404,156.087,294.17,159.6,292.953,162.707
				z"/>
			<path fill="#4F110E" d="M319.877,253.992h-12.484c0,0-1.502,8.036-11.053,8.036H167.765v-66.804h38.005
				c12.722,0,24.983-4.702,34.438-13.21l0.729-0.64c9.175-8.25,21.004-12.934,33.331-13.198l11.191-0.249
				c3.323-0.069,6.278-2.136,7.493-5.221c1.218-3.106,0.451-6.619-1.932-8.943c-5.213-5.051-8.428-9.942-17.771-11.643
				c5.737,0.522,8.583,1.059,13.946,1.635c0.788,0.088,1.639,0.172,2.546,0.256c1.165,0.092,2.473,0.525,3.88,1.237
				c10.375,5.313,25.715,26.734,26.695,49.975c0.051,1.342,6.127,2.685,6.155,4.029
				C326.982,220.012,324.807,241.568,319.877,253.992z"/>
			<path fill="#2D2D2D" d="M301.362,232.112c0-2.911-2.36-5.274-5.271-5.274H167.765v27.624h128.326c2.91,0,5.271-2.355,5.271-5.269
				V232.112z"/>
			<path fill="#FFCC10" d="M263.303,178.406c-9.291,0-16.826,7.535-16.826,16.823h53.745
				C300.222,185.941,272.592,178.406,263.303,178.406z"/>
			<path fill="#E1A925" d="M246.477,195.229c0,9.291,7.535,16.825,16.826,16.825c9.289,0,36.919-7.534,36.919-16.825H246.477z"/>
			<path fill="#4F110E" d="M230.644,155.729v-1.413c0-2.376-1.931-4.31-4.319-4.31h-58.556v10.044h58.556
				C228.713,160.05,230.644,158.111,230.644,155.729z"/>
			<circle fill="#FFCC10" cx="285.794" cy="240.651" r="8.543"/>
			<path fill="#2D2D2D" d="M167.769,271.167h81.594c3.736,0,6.771-3.032,6.771-6.769v-2.37h-88.364V271.167z"/>
			<path fill="#3C3C3B" d="M31.439,295.277h24.61c5.132,0,9.295-4.163,9.295-9.298v-31.987H22.148v31.987
				c0,2.081,0.689,3.992,1.841,5.541l1.917,1.913C27.453,294.584,29.362,295.277,31.439,295.277z"/>
			<path fill="#3C3C3B" d="M25.906,293.433l-1.917-1.913C24.531,292.248,25.176,292.892,25.906,293.433z"/>
			<path fill="#A11D29" d="M167.765,135.979v59.245h-38c-12.724,0-24.992-4.702-34.448-13.21l-0.728-0.64
				c-9.169-8.25-21.003-12.934-33.335-13.198l-11.185-0.249c-3.325-0.069-6.281-2.136-7.496-5.221
				c-1.218-3.106-0.45-6.619,1.934-8.943c5.213-5.051,8.423-9.942,17.783-11.643C102.209,138.524,137.081,136.261,167.765,135.979z"
				/>
			<path fill="#7F1718" d="M167.765,195.224v66.804H39.189c-9.542,0-11.053-8.036-11.053-8.036H15.649
				c-4.927-12.424-7.107-33.979-6.596-54.738c0.042-1.345,6.108-2.688,6.167-4.029c0.974-23.259,16.322-44.68,26.7-49.975
				c1.39-0.712,2.7-1.145,3.865-1.237c0.911-0.084,1.755-0.168,2.548-0.256c5.356-0.576,8.219-1.113,13.958-1.635
				c-9.36,1.701-12.57,6.591-17.783,11.643c-2.384,2.324-3.152,5.837-1.934,8.943c1.215,3.085,4.171,5.151,7.496,5.221l11.185,0.249
				c12.332,0.265,24.166,4.948,33.335,13.198l0.728,0.64c9.456,8.508,21.724,13.21,34.448,13.21H167.765z"/>
			<path fill="#4D4C4C" d="M34.169,232.112c0-2.911,2.357-5.274,5.271-5.274h128.329v27.624H39.44c-2.913,0-5.271-2.355-5.271-5.269
				V232.112z"/>
			<path fill="#FFCC10" d="M72.227,178.406c9.291,0,16.823,7.535,16.823,16.823H35.31C35.31,185.941,62.937,178.406,72.227,178.406z
				"/>
			<path fill="#E1A925" d="M89.05,195.229c0,9.291-7.532,16.825-16.823,16.825c-9.291,0-36.917-7.534-36.917-16.825H89.05z"/>
			<path fill="#7F1718" d="M104.887,155.729v-1.413c0-2.376,1.935-4.31,4.317-4.31h58.564v10.044h-58.564
				C106.822,160.05,104.887,158.111,104.887,155.729z"/>
			<path fill="#FFCC10" d="M41.195,240.651c0,4.719,3.823,8.542,8.545,8.542c4.714,0,8.542-3.823,8.542-8.542
				c0-4.718-3.828-8.539-8.542-8.539C45.018,232.112,41.195,235.933,41.195,240.651z"/>
			<path fill="#4D4C4C" d="M167.769,271.167H86.173c-3.744,0-6.771-3.032-6.771-6.769v-2.37h88.367V271.167z"/>
			<path fill="#D5C4B9" d="M212.465,244.873c0,2.383-1.933,4.316-4.317,4.316h-40.374v-17.075h40.374
				c2.385,0,4.317,1.933,4.317,4.317V244.873z"/>
			<path fill="#EEE4DC" d="M123.065,244.876c0,2.384,1.936,4.316,4.318,4.316h40.385v-17.081h-40.385
				c-2.383,0-4.318,1.938-4.318,4.314V244.876z"/>
		</g>
	</g>
</g>
</svg>
